<?xml version="1.0" encoding="UTF-8" standalone="no"?>
<!DOCTYPE svg PUBLIC "-//W3C//DTD SVG 1.1//EN" "http://www.w3.org/Graphics/SVG/1.1/DTD/svg11.dtd">
<svg width="100%" height="100%" viewBox="0 0 499 241" version="1.1" xmlns="http://www.w3.org/2000/svg" xmlns:xlink="http://www.w3.org/1999/xlink" xml:space="preserve" xmlns:serif="http://www.serif.com/" style="fill-rule:evenodd;clip-rule:evenodd;stroke-linejoin:round;stroke-miterlimit:2;">
    <g transform="matrix(1,0,0,1,-415,0)">
        <path d="M674.318,92.395C676.552,95.003 720.415,109.613 735.665,127.365C750.915,145.119 757.572,160.963 755.419,176.197C753.269,191.431 743.949,191.179 739.879,196.727C735.809,202.274 730.189,209.115 719.389,208.387C705.249,207.439 690.669,200.373 680.139,175.847C669.609,151.32 670.419,128.28 671.259,115.497C672.099,102.717 674.299,92.395 674.299,92.395L674.318,92.395Z" style="fill:url(#_Linear1);fill-rule:nonzero;"/>
    </g>
    <g transform="matrix(1,0,0,1,-982.983,-1376)">
        <path d="M1239.67,1476.6L1305.36,1574.53L1302.33,1577.91" style="fill:url(#_Linear2);fill-rule:nonzero;"/>
    </g>
    <g transform="matrix(1,0,0,1,-415,0)">
        <path d="M419.922,236.713L420.54,232.376C438.06,223.041 459.884,219.442 477.645,210.431C482.973,212.831 485.342,209.371 491.025,209.691C493.087,211.551 488.431,214.041 493.999,213.661C506.649,215.341 518.969,212.981 531.409,211.921C544.529,210.801 557.559,212.051 570.429,211.291C574.539,211.051 580.869,205.361 585.909,208.191C588.189,212.321 578.469,212.681 581.079,217.241C606.839,223.301 671.269,248.921 682.289,221.051C682.439,222.751 680.359,226.111 683.399,225.641C705.119,215.921 742.029,194.931 748.529,189.431C755.669,183.391 765.189,183.581 774.529,181.431C791.349,177.561 809.299,173.621 823.859,165.141C832.859,171.391 851.699,174.501 861.769,172.321C872.279,170.041 888.589,152.591 897.319,146.421C900.749,144.001 905.769,139.291 909.459,141.961C906.979,143.661 909.899,148.641 906.859,147.781C905.269,144.741 902.099,148.251 899.789,147.661C890.999,154.871 881.869,161.621 872.909,168.601C868.729,171.171 876.939,173.831 872.039,174.671C848.899,179.271 813.659,167.751 799.071,183.741C775.956,191.651 754.091,193.661 731.311,205.941C718.221,213.001 702.203,225.841 688.577,232.591C686.267,233.741 682.884,234.141 680.154,235.821C676.834,237.861 676.018,240.421 673.217,241.025C666.237,242.528 651.817,238.885 642.737,237.565C612.457,233.165 580.127,220.819 551.553,219.255C540.253,218.635 526.913,220.425 514.141,220.999C486.991,222.225 470.011,222.869 448.241,230.189C439.341,233.186 425.651,241.119 419.877,236.769L419.922,236.713Z" style="fill:rgb(60,60,59);"/>
    </g>
    <g transform="matrix(1,0,0,1,-415,0)">
        <path d="M839.46,0C836.41,4.944 766.86,40.807 745.985,74.472C725.112,108.137 719.157,134.644 726.725,159.562C734.291,184.476 748.755,183.354 757,191.57C765.246,199.79 776.432,209.763 794.3,205.736C817.695,200.461 840.24,184.846 851.455,141.086C862.669,97.324 855.315,59.003 850.575,37.844C845.838,16.687 839.462,0 839.462,0L839.46,0Z" style="fill:url(#_Linear3);fill-rule:nonzero;"/>
    </g>
    <g transform="matrix(1,0,0,1,-982.983,-1376)">
        <path d="M1406.26,1383.39L1321.92,1564.28L1326.87,1569.25" style="fill:rgb(205,118,0);fill-rule:nonzero;"/>
    </g>
    <defs>
        <linearGradient id="_Linear1" x1="0" y1="0" x2="1" y2="0" gradientUnits="userSpaceOnUse" gradientTransform="matrix(-39.128,-67.1355,67.1355,-39.128,725.358,183.934)"><stop offset="0" style="stop-color:rgb(0,91,187);stop-opacity:1"/><stop offset="1" style="stop-color:rgb(82,166,255);stop-opacity:1"/></linearGradient>
        <linearGradient id="_Linear2" x1="0" y1="0" x2="1" y2="0" gradientUnits="userSpaceOnUse" gradientTransform="matrix(80.0698,13.5428,-13.5428,80.0698,1235.17,1520.39)"><stop offset="0" style="stop-color:rgb(68,166,184);stop-opacity:1"/><stop offset="1" style="stop-color:rgb(0,28,168);stop-opacity:1"/></linearGradient>
        <linearGradient id="_Linear3" x1="0" y1="0" x2="1" y2="0" gradientUnits="userSpaceOnUse" gradientTransform="matrix(37.6,-83.6,83.6,37.6,774.737,160.915)"><stop offset="0" style="stop-color:rgb(255,213,0);stop-opacity:1"/><stop offset="1" style="stop-color:rgb(253,237,152);stop-opacity:1"/></linearGradient>
    </defs>
</svg>
