<?xml version="1.0" encoding="iso-8859-1"?>
<!-- Generator: Adobe Illustrator 24.3.0, SVG Export Plug-In . SVG Version: 6.00 Build 0)  -->
<svg version="1.1" id="Layer_2_1_" xmlns="http://www.w3.org/2000/svg" xmlns:xlink="http://www.w3.org/1999/xlink" x="0px" y="0px"
	 viewBox="0 0 200 200" style="enable-background:new 0 0 200 200;" xml:space="preserve">
<path style="fill:none;stroke:#5F2167;stroke-width:5;stroke-miterlimit:10;" d="M67.3,38.6v15.2H56c-4.2,0-7.6-3.4-7.6-7.6
	c0-2.1,0.8-4,2.2-5.4s3.3-2.2,5.4-2.2H67.3z"/>
<path style="fill:none;stroke:#5F2167;stroke-width:5;stroke-miterlimit:10;" d="M142.6,46.2c0,2.1-0.8,4-2.2,5.4s-3.3,2.2-5.4,2.2
	h-11.4V38.6H135C139.2,38.6,142.6,42,142.6,46.2z"/>
<path style="fill:none;stroke:#5F2167;stroke-width:5;stroke-miterlimit:10;" d="M97.6,38.6v52.7c0-4-3.3-7.3-7.3-7.3
	S83,87.3,83,91.3v7.9h-9.9c-1.5,0-2.9-0.6-3.9-1.5c-1.1-1-1.9-2.5-1.9-4.2V38.6H97.6z"/>
<path style="fill:none;stroke:#5F2167;stroke-width:5;stroke-miterlimit:10;" d="M123.6,38.6v54.9c0,3.2-2.6,5.7-5.7,5.7h-9.7V38.6
	H123.6z"/>
<rect x="97.6" y="38.6" style="fill:none;stroke:#5F2167;stroke-width:5;stroke-miterlimit:10;" width="10.6" height="60.6"/>
<path style="fill:none;stroke:#5F2167;stroke-width:5;stroke-linecap:round;stroke-miterlimit:10;" d="M115.4,165.2
	c0,0,13.9-42.8,13-47.6c-0.8-4.8-10.5-18.4-10.5-18.4"/>
<path style="fill:none;stroke:#5F2167;stroke-width:5;stroke-linecap:round;stroke-miterlimit:10;" d="M81.9,121.6
	c1.3-3.7,1.1-6.7,1.1-8.9c0-0.3,0-0.6,0-0.9V91.3c0-4,3.3-7.3,7.3-7.3s7.3,3.3,7.3,7.3v19.3c0,0,0,0.7,0,2.1"/>
<path style="fill:none;stroke:#5F2167;stroke-width:5;stroke-linecap:round;stroke-miterlimit:10;" d="M83,112.7L83,112.7v-0.9
	C83,112.1,83,112.4,83,112.7z"/>
<path style="fill:none;stroke:#5F2167;stroke-width:5;stroke-linecap:round;stroke-miterlimit:10;" d="M97.6,112.7
	c0,1.3,0,3.2,0,5.6c0,4.8,6.5,12.2,13,6.2"/>
<path style="fill:none;stroke:#5F2167;stroke-width:5;stroke-linecap:round;stroke-miterlimit:10;" d="M80.7,163.5
	c-8.4-10.5-8.7-20.9-6-28.6"/>
<path style="fill:none;stroke:#5F2167;stroke-width:5;stroke-linecap:round;stroke-miterlimit:10;" d="M81.9,121.6
	c0,0.1-0.1,0.1-0.1,0.2"/>
<path style="fill:none;stroke:#5F2167;stroke-width:5;stroke-linecap:round;stroke-miterlimit:10;" d="M81.6,121.3L68,109.6
	c-3.1-2.6-3.4-7.2-0.8-10.3c0.6-0.7,1.3-1.2,2-1.6c1,0.9,2.4,1.5,3.9,1.5h5.2l4.8,4.1v9.4l0,0C83.1,114.9,82.9,117.6,81.6,121.3z"/>
<path style="fill:none;stroke:#5F2167;stroke-width:5;stroke-linecap:round;stroke-miterlimit:10;" d="M83,112.7L83,112.7v-0.9
	C83,112.1,83,112.4,83,112.7z"/>
<path style="fill:none;stroke:#5F2167;stroke-width:5;stroke-linecap:round;stroke-miterlimit:10;" d="M81.9,121.8L81.9,121.8
	c-0.7,1.9-1.8,3.9-3.4,6.1c-1.5,1.9-2.8,4.3-3.7,7l-10.2-8.7c-3.1-2.6-3.4-7.2-0.8-10.3c2.6-3.1,7.2-3.4,10.3-0.8L81.9,121.8z"/>
</svg>
