<svg viewBox="0 0 550 550" xmlns="http://www.w3.org/2000/svg" xmlns:xlink="http://www.w3.org/1999/xlink" xml:space="preserve" style="fill-rule:evenodd;clip-rule:evenodd;stroke-linejoin:round;stroke-miterlimit:2"><path d="M203.199 235.95v-.444c0-44.256 33.36-80.505 81.174-80.505 29.355 0 46.92 9.783 61.377 24.015l-21.795 25.131c-12.009-10.896-24.24-17.568-39.807-17.568-26.241 0-45.144 21.795-45.144 48.48v.447c0 26.685 18.456 48.924 45.144 48.924 17.79 0 28.689-7.116 40.92-18.234l21.795 22.014c-16.014 17.124-33.804 27.801-63.828 27.801-45.81 0-79.836-35.364-79.836-80.061M371.062 235.95v-.444c0-44.256 33.36-80.505 81.173-80.505 29.356 0 46.923 9.783 61.38 24.015l-21.794 25.131c-12.01-10.896-24.24-17.568-39.811-17.568-26.241 0-45.141 21.795-45.141 48.48v.447c0 26.685 18.457 48.924 45.141 48.924 17.793 0 28.689-7.116 40.921-18.234l21.794 22.014c-16.01 17.124-33.803 27.801-63.825 27.801-45.813 0-79.839-35.364-79.839-80.061M35 235.95v-.444c0-44.256 33.36-80.505 81.174-80.505 29.352 0 46.923 9.783 61.377 24.015l-21.795 25.131c-12.009-10.896-24.24-17.568-39.807-17.568-26.241 0-45.144 21.795-45.144 48.48v.447c0 26.685 18.456 48.924 45.144 48.924 17.793 0 28.689-7.116 40.92-18.234l21.795 22.014c-16.014 17.124-33.804 27.801-63.825 27.801C69.026 316.011 35 280.647 35 235.95" style="fill:#e74e0f"/><path d="M501.693 367.033c-.732-1.276-1.536-2.314-2.4-3.124a8.258 8.258 0 0 0-2.895-1.799c-1.053-.387-2.232-.574-3.54-.574-1.407.01-2.709.231-3.894.663-1.194.433-2.223 1.038-3.108 1.825a8.231 8.231 0 0 0-2.067 2.748c-.489 1.055-.738 2.204-.744 3.45-.009 1.833.549 3.435 1.653 4.809 1.101 1.365 2.796 2.526 5.067 3.483.876.365 1.596.671 2.169.918.564.233 1.02.44 1.365.584.351.156.63.288.84.402.225.106.411.214.582.318.183.108.369.231.588.379.738.512 1.302 1.127 1.686 1.847.378.712.573 1.536.573 2.473-.009 1.05-.237 1.994-.696 2.801a5.033 5.033 0 0 1-1.887 1.929c-.804.466-1.728.706-2.766.712a6.155 6.155 0 0 1-1.929-.306 5.45 5.45 0 0 1-1.638-.885 4.425 4.425 0 0 1-1.143-1.356 5 5 0 0 1-.408-.868 8.012 8.012 0 0 1-.279-1.097 30.891 30.891 0 0 1-.246-1.62l-5.004 1.127c.117.813.246 1.516.411 2.118.162.597.357 1.155.603 1.654.246.504.54 1.014.9 1.529.975 1.408 2.181 2.485 3.645 3.231 1.458.75 3.093 1.125 4.89 1.135 1.515-.01 2.913-.27 4.188-.793a9.822 9.822 0 0 0 3.327-2.189 9.84 9.84 0 0 0 2.196-3.306c.522-1.279.783-2.655.789-4.161.003-1.498-.261-2.838-.807-4.023-.537-1.179-1.374-2.232-2.502-3.156-1.128-.927-2.577-1.761-4.341-2.487-.861-.351-1.566-.639-2.118-.867l-1.326-.558a23.21 23.21 0 0 1-.801-.366 6.825 6.825 0 0 1-.516-.288 19.948 19.948 0 0 1-.489-.327c-.54-.369-.936-.786-1.197-1.242a3.098 3.098 0 0 1-.375-1.506c.009-.777.219-1.47.636-2.082.411-.606.975-1.092 1.686-1.449.723-.354 1.527-.531 2.436-.54.744-.009 1.392.09 1.941.276.546.198 1.053.534 1.518 1.008.468.477.951 1.128 1.449 1.956l3.978-2.406Zm-52.755 10.842v4.665h8.145a8.299 8.299 0 0 1-1.023 3.243 9.863 9.863 0 0 1-2.181 2.661c-.9.759-1.908 1.347-3.027 1.779a9.995 9.995 0 0 1-3.534.654 10.852 10.852 0 0 1-3.909-.768 13.604 13.604 0 0 1-3.648-2.172c-1.419-1.179-2.502-2.553-3.228-4.113-.72-1.557-1.089-3.3-1.089-5.214.009-1.764.318-3.39.933-4.893.624-1.506 1.482-2.823 2.583-3.945a12.022 12.022 0 0 1 3.876-2.625c1.482-.621 3.084-.939 4.827-.948 1.317 0 2.55.186 3.69.573 1.137.375 2.214.972 3.219 1.767 1.005.801 1.971 1.812 2.904 3.057l3.531-3.384a42.316 42.316 0 0 0-1.341-1.497 18.668 18.668 0 0 0-1.146-1.089 15.74 15.74 0 0 0-1.143-.9 16.286 16.286 0 0 0-4.614-2.37 16.757 16.757 0 0 0-5.199-.819 17.56 17.56 0 0 0-5.43.858 17.27 17.27 0 0 0-4.695 2.415 17.051 17.051 0 0 0-3.681 3.678 17.21 17.21 0 0 0-2.409 4.695c-.564 1.707-.849 3.519-.858 5.427.009 1.872.291 3.657.858 5.343a16.695 16.695 0 0 0 2.373 4.644 17.275 17.275 0 0 0 3.612 3.672 16.862 16.862 0 0 0 4.578 2.405c1.662.571 3.42.856 5.259.865a15.819 15.819 0 0 0 4.767-.745 15.577 15.577 0 0 0 4.254-2.108 14.787 14.787 0 0 0 3.393-3.33 14.416 14.416 0 0 0 1.644-2.853c.423-1 .744-2.077.948-3.238.204-1.163.303-2.453.303-3.866v-1.524h-13.542Zm-44.754 4.418h-9.909l5.055-11.091 4.854 11.091Zm2.013 4.659 3.435 7.947h5.397l-15.603-34.788-16.191 34.789h5.298l3.678-7.947h13.986Zm-54.42 3.284v-9.86h2.502c.846 0 1.578.036 2.208.108a8.34 8.34 0 0 1 1.635.345 4.72 4.72 0 0 1 1.26.63c.408.281.768.63 1.071 1.043.297.418.534.868.693 1.357a4.493 4.493 0 0 1-.015 2.981c-.162.49-.399.946-.702 1.356-.3.405-.657.745-1.047 1.014-.522.366-1.155.63-1.875.793-.723.161-1.617.236-2.688.236l-3.042-.003Zm0-13.983v-9.519h1.719c.882 0 1.635.102 2.256.298.624.195 1.128.491 1.521.885.426.399.75.914.996 1.544a5.53 5.53 0 0 1 .375 1.987c0 .45-.054.893-.168 1.34-.114.447-.27.877-.474 1.279a4.447 4.447 0 0 1-.729 1.014c-.408.413-.933.707-1.563.897-.636.189-1.44.279-2.412.279l-1.521-.003Zm-4.956 18.644h7.509c1.092 0 2.067-.038 2.91-.12a13.703 13.703 0 0 0 2.256-.393 8.642 8.642 0 0 0 1.833-.728 10.159 10.159 0 0 0 1.635-1.111 9.14 9.14 0 0 0 2.436-3.14c.567-1.201.843-2.494.852-3.877-.009-1.302-.24-2.493-.687-3.588a8.153 8.153 0 0 0-1.932-2.832c-.831-.8-1.824-1.404-2.976-1.824.909-.822 1.572-1.716 2.004-2.675.435-.954.645-2.041.645-3.262a9.425 9.425 0 0 0-.474-2.9 9.9 9.9 0 0 0-1.308-2.617 8.104 8.104 0 0 0-1.947-1.986 7.454 7.454 0 0 0-1.923-.959c-.717-.247-1.56-.423-2.523-.541-.966-.113-2.103-.171-3.402-.171h-4.908v32.724Zm-52.653-1.764c-1.38-.009-2.664-.269-3.852-.785a9.388 9.388 0 0 1-3.117-2.19 10.194 10.194 0 0 1-2.082-3.336c-.498-1.284-.753-2.7-.762-4.236.009-1.308.195-2.478.579-3.507a8.903 8.903 0 0 1 1.557-2.736 10.192 10.192 0 0 1 2.28-1.998c.354.51.786 1.086 1.308 1.721a54.764 54.764 0 0 0 1.629 1.947 117.954 117.954 0 0 0 2.853 3.199c.261.276.645.668 1.152 1.166.501.507 1.08 1.065 1.734 1.695.657.63 1.332 1.269 2.055 1.93.711.659 1.404 1.298 2.085 1.904a61.45 61.45 0 0 0 1.854 1.596c-.555.588-1.266 1.153-2.136 1.702-.855.554-1.887 1.014-3.072 1.374-1.188.36-2.544.536-4.065.554Zm-1.716 2.599c1.455-.007 2.772-.153 3.957-.441a16.376 16.376 0 0 0 3.174-1.092c.93-.454 1.734-.918 2.421-1.408a15.636 15.636 0 0 0 1.698-1.374c.45-.419.795-.743 1.014-.981a82.277 82.277 0 0 0 2.79 2.119c.786.56 1.482 1.014 2.094 1.346a9.182 9.182 0 0 0 1.716.754 8.05 8.05 0 0 0 1.671.317c.57.058 1.215.084 1.935.075h4.812c.228 0 .42-.033.576-.099.168-.066.246-.147.255-.243.003-.141-.057-.237-.18-.279-.114-.05-.285-.069-.504-.069a8.05 8.05 0 0 1-1.95-.282 14.96 14.96 0 0 1-2.067-.723 13.961 13.961 0 0 1-1.824-.906 31.216 31.216 0 0 1-1.644-.996 39.95 39.95 0 0 1-2.241-1.557 70.45 70.45 0 0 1-2.889-2.304 22.135 22.135 0 0 0 1.671-2.373 27.072 27.072 0 0 0 1.569-2.916c.486-1.05.87-2.103 1.161-3.174.297-1.08.453-2.121.462-3.117a1.066 1.066 0 0 0-.168-.639c-.12-.18-.357-.291-.717-.342a65.267 65.267 0 0 0-3.534-.288 46.572 46.572 0 0 0-2.355-.054 1.493 1.493 0 0 0-.54.081c-.156.048-.237.138-.246.261.012.123.066.213.189.261a.891.891 0 0 0 .402.081c.252 0 .522.018.81.06.288.045.57.123.849.237.279.114.531.276.744.489.36.375.612.777.744 1.2.132.426.198.828.189 1.206 0 1.005-.114 2.019-.345 3.027a15.986 15.986 0 0 1-.897 2.844c-.375.882-.795 1.644-1.26 2.274-.33-.279-.795-.696-1.407-1.251a245.785 245.785 0 0 1-2.055-1.89c-.759-.714-1.521-1.425-2.277-2.151a286.885 286.885 0 0 1-2.082-2.013 42.568 42.568 0 0 1-1.452-1.479 134.507 134.507 0 0 1-3.36-3.762 33.736 33.736 0 0 1-2.433-3.165c-.651-.975-1.137-1.92-1.47-2.838a8.328 8.328 0 0 1-.489-2.796c.009-1.152.195-2.136.555-2.952.366-.816.852-1.479 1.455-1.995a6.155 6.155 0 0 1 2.004-1.128 6.83 6.83 0 0 1 2.214-.351 6.456 6.456 0 0 1 1.998.309 6.662 6.662 0 0 1 1.644.786c.483.324.906.681 1.266 1.062.408.426.72.882.939 1.368.222.471.378.954.462 1.437.09.48.126.933.123 1.365 0 .36.012.606.054.744.042.132.123.198.237.189.099.009.189-.033.261-.138.084-.108.156-.339.228-.696.042-.195.078-.522.114-.99.045-.459.087-.981.117-1.551.033-.585.057-1.146.081-1.704.027-.555.036-1.023.036-1.398.006-.285-.027-.522-.102-.702-.072-.189-.252-.36-.537-.525-.672-.378-1.512-.669-2.529-.891-1.014-.222-2.151-.327-3.408-.336-1.314.009-2.529.198-3.624.567a10.429 10.429 0 0 0-2.925 1.497c-.858.63-1.59 1.332-2.178 2.118a9.265 9.265 0 0 0-1.356 2.418c-.309.834-.465 1.644-.465 2.43 0 .726.072 1.455.219 2.169.15.717.402 1.446.753 2.205a15.72 15.72 0 0 0 1.431 2.397 18.57 18.57 0 0 0-2.787 1.995 14.935 14.935 0 0 0-2.397 2.61 12.141 12.141 0 0 0-1.686 3.27c-.414 1.191-.63 2.52-.639 3.948 0 .867.141 1.794.417 2.766.279.981.711 1.944 1.311 2.895.588.945 1.359 1.812 2.289 2.598.942.777 2.061 1.401 3.369 1.866 1.311.465 2.823.705 4.539.717Zm-44.166-30.468c-1.38-1.2-2.877-2.109-4.497-2.715a14.327 14.327 0 0 0-5.118-.915c-1.482.006-2.838.246-4.083.711-1.233.477-2.313 1.137-3.228 1.989a8.884 8.884 0 0 0-2.127 3.015c-.507 1.152-.762 2.421-.771 3.804-.006 1.434.255 2.676.78 3.729.534 1.053 1.38 1.995 2.568 2.814 1.188.816 2.748 1.575 4.701 2.286 1.245.444 2.208.813 2.91 1.113.699.312 1.203.558 1.506.753.642.417 1.119.915 1.44 1.491.318.57.474 1.209.474 1.893-.009.909-.231 1.704-.657 2.397a4.46 4.46 0 0 1-1.782 1.62c-.75.393-1.626.591-2.616.597-1.479-.006-2.814-.384-3.981-1.134-1.179-.744-2.142-1.827-2.886-3.234l-4.122 3.975c1.458 2.127 3.105 3.696 4.938 4.719 1.833 1.014 3.933 1.521 6.297 1.516 1.704-.01 3.246-.271 4.638-.787 1.389-.516 2.592-1.251 3.594-2.199a9.924 9.924 0 0 0 2.325-3.411c.549-1.32.819-2.79.828-4.401 0-1.455-.246-2.757-.729-3.918a7.817 7.817 0 0 0-2.169-2.952 10.035 10.035 0 0 0-1.128-.864c-.39-.264-.834-.516-1.323-.762a24.984 24.984 0 0 0-1.728-.768 60.13 60.13 0 0 0-2.346-.891c-1.266-.468-2.256-.9-2.985-1.308-.726-.411-1.233-.834-1.536-1.278-.3-.441-.444-.954-.435-1.536.012-.678.213-1.29.621-1.839.405-.543.951-.975 1.638-1.302.696-.318 1.479-.483 2.355-.492a6.186 6.186 0 0 1 1.905.264c.597.18 1.161.459 1.716.849.549.393 1.113.9 1.677 1.539l3.336-4.368Zm-40.041 2.454v-5.544H190.14v32.724h18.105v-5.544h-11.73v-8.832h11.289v-5.544h-11.289v-7.26h11.73Zm-56.037-.441c1.527.009 2.958.303 4.272.873a10.93 10.93 0 0 1 3.477 2.406 11.232 11.232 0 0 1 2.34 3.573c.558 1.347.84 2.814.849 4.383-.009 1.572-.294 3.036-.858 4.392a11.332 11.332 0 0 1-2.34 3.588 11.064 11.064 0 0 1-3.468 2.424c-1.305.579-2.724.873-4.224.882-1.53-.009-2.955-.303-4.278-.891a10.894 10.894 0 0 1-3.477-2.43 11.43 11.43 0 0 1-2.337-3.615c-.555-1.374-.843-2.853-.852-4.446a11.194 11.194 0 0 1 3.222-7.851 10.978 10.978 0 0 1 3.468-2.406 10.428 10.428 0 0 1 4.206-.882Zm.096-5.838c-1.953.009-3.804.291-5.562.858a17.594 17.594 0 0 0-4.815 2.397 17.11 17.11 0 0 0-3.804 3.651 16.794 16.794 0 0 0-2.493 4.629 16.286 16.286 0 0 0-.891 5.343c.015 2.469.456 4.752 1.326 6.846.873 2.1 2.091 3.93 3.651 5.493a16.902 16.902 0 0 0 5.496 3.657c2.097.864 4.377 1.305 6.846 1.323 2.007-.009 3.885-.288 5.658-.849a17.364 17.364 0 0 0 4.866-2.382 16.885 16.885 0 0 0 3.795-3.654 16.578 16.578 0 0 0 2.46-4.701c.585-1.719.876-3.552.885-5.487-.009-1.932-.294-3.752-.876-5.472a16.466 16.466 0 0 0-2.445-4.71 16.998 16.998 0 0 0-3.747-3.687 17.35 17.35 0 0 0-4.788-2.397c-1.749-.567-3.6-.849-5.562-.858Zm-58.149 13.395v-12.66h-6.378v32.724h6.378v-14.522h13.836v14.522h6.381v-32.724h-6.381v12.661H94.155Zm-27.678-9.571c-1.383-1.2-2.88-2.108-4.497-2.714a14.322 14.322 0 0 0-5.121-.916c-1.479.007-2.838.247-4.08.712-1.233.477-2.316 1.137-3.231 1.989a8.835 8.835 0 0 0-2.124 3.015c-.507 1.152-.762 2.421-.771 3.804-.006 1.434.255 2.676.78 3.729.531 1.053 1.38 1.995 2.565 2.814 1.188.816 2.748 1.575 4.701 2.286 1.245.444 2.208.813 2.913 1.113.696.312 1.203.558 1.503.753.639.417 1.122.915 1.44 1.491.321.57.474 1.209.474 1.893-.006.909-.228 1.704-.654 2.397a4.48 4.48 0 0 1-1.782 1.62c-.753.393-1.629.591-2.616.597-1.482-.006-2.814-.384-3.984-1.134-1.176-.744-2.142-1.827-2.886-3.234l-4.119 3.975c1.455 2.127 3.105 3.696 4.935 4.719 1.833 1.014 3.936 1.521 6.297 1.515 1.704-.009 3.249-.27 4.638-.786 1.392-.516 2.592-1.251 3.597-2.199a9.924 9.924 0 0 0 2.325-3.411c.546-1.32.816-2.79.825-4.401.003-1.455-.246-2.757-.726-3.918a7.856 7.856 0 0 0-2.172-2.952 10.035 10.035 0 0 0-1.128-.864 11.42 11.42 0 0 0-1.323-.762 24.855 24.855 0 0 0-1.725-.768 62.039 62.039 0 0 0-2.346-.891c-1.266-.468-2.259-.9-2.985-1.308-.729-.411-1.236-.834-1.539-1.278-.3-.441-.441-.954-.432-1.536.009-.678.213-1.29.621-1.839.402-.543.948-.975 1.638-1.302.693-.318 1.476-.483 2.352-.492a5.98 5.98 0 0 1 3.624 1.113c.549.393 1.11.9 1.677 1.539l3.336-4.368Z"/></svg>