<?xml version="1.0"?>
<svg xmlns="http://www.w3.org/2000/svg" viewBox="0 0 409.69 133.13"><path d="m0 0h409.69v124.77h-409.69z" fill="#007c84"/><path d="m0 114.12h409.7v19.01h-409.7z" fill="#fdbd10"/><g fill="#fff"><path d="m112.71 27.32a98.42 98.42 0 0 1 13.33.76 31.38 31.38 0 0 1 10.15 3.23 26 26 0 0 1 11 10.54 32.39 32.39 0 0 1 3.81 16 31.41 31.41 0 0 1 -3 13.91 27.41 27.41 0 0 1 -8.77 10.36 28.7 28.7 0 0 1 -11.21 5 74.46 74.46 0 0 1 -15.28 1.33h-18.63q.61-20.64.62-30.56 0-9.48-.62-30.57zm-4.87 51.3h6.16q23 0 23-20.73t-23-20.73h-6.2z"/><path d="m167.46 66.93v.7a12.69 12.69 0 0 0 4.21 10q4.2 3.72 11.38 3.72a23.86 23.86 0 0 0 14.36-4.79v9.57a40.7 40.7 0 0 1 -17.1 3.9q-11.88 0-18.65-6.34t-6.78-16.52a27.33 27.33 0 0 1 1.73-9.83 22.36 22.36 0 0 1 4.87-7.75 21.73 21.73 0 0 1 7.49-5 24.84 24.84 0 0 1 9.48-1.77q9.3 0 15 5.89t5.67 15.81a23.45 23.45 0 0 1 -.09 2.4zm17.72-13.52a9.72 9.72 0 0 0 -6.82-2.41 10.51 10.51 0 0 0 -7.09 2.43 10 10 0 0 0 -3.37 6.52h20a8.71 8.71 0 0 0 -2.72-6.54z"/><path d="m240.46 88.54a42.69 42.69 0 0 0 -5.76.53 25.28 25.28 0 0 1 -1-6.91v-.79q-6.21 8.76-16.21 8.77c-4.38 0-7.84-1.24-10.41-3.72a12.94 12.94 0 0 1 -3.86-9.75 12.06 12.06 0 0 1 3.5-9.12q3.5-3.37 10.94-5l4.43-1q8.16-1.77 10.46-3.28v-.62a6 6 0 0 0 -2.79-5.23c-1.86-1.23-4.54-1.85-8-1.85a23.88 23.88 0 0 0 -12.94 4.07v-8.8a38.26 38.26 0 0 1 15.06-2.92q11.09 0 15.86 4.43t4.79 14.35v6.3q0 7 .35 11.87a50 50 0 0 0 1.51 9.21 44.93 44.93 0 0 0 -5.93-.54zm-11.74-22c-1.33.47-2.94 1-4.83 1.42-1.18.3-1.83.47-1.94.53q-6.57 2-6.56 6.82a5.91 5.91 0 0 0 1.73 4.48 6.61 6.61 0 0 0 4.74 1.64 9.81 9.81 0 0 0 8-3.95q3.14-3.9 3.14-10.82a18.61 18.61 0 0 0 -.09-2.13 23.34 23.34 0 0 1 -4.19 2.04z"/><path d="m261.37 27.41a39.53 39.53 0 0 0 6.91-.71q-.61 12.24-.62 31.19v5.23q0 14.34.62 25.95a38.44 38.44 0 0 0 -6.91-.62 35.14 35.14 0 0 0 -6.65.62q.63-11.59.63-25.95v-5.23q0-19-.63-31.19a35.43 35.43 0 0 0 6.65.71z"/><path d="m313.28 44c1.48 0 2.22.41 2.22 1.24a7.57 7.57 0 0 1 -1.5 3.26l-20.3 31.5h3.82q6 0 18.07-.35v9.12q-5.67-.27-16.21-.27h-21.27c-1.47 0-2.21-.47-2.21-1.41a4.49 4.49 0 0 1 1-2.13.91.91 0 0 1 .18-.35l21.32-32.13q-11.43 0-20.38.36v-8.84z"/></g></svg>
