<svg xmlns="http://www.w3.org/2000/svg" width="1500" height="352" viewBox="0 0 1406.2501 330.00001"><g fill="#2b2b2a"><path d="M233.77 134.905c-1.24-2.692-4.657-4.9-7.628-4.9h-38.086c-2.963 0-5.387-2.428-5.387-5.4V100.53c0-2.968-2.434-5.395-5.394-5.395H152.98c-2.97 0-5.388 2.427-5.388 5.395v24.076c0 2.97-2.44 5.4-5.393 5.4h-38.09c-2.96 0-6.4 2.207-7.632 4.9l-35.992 78.618c-1.25 2.697.18 4.903 3.14 4.903h24.295c2.967 0 6.402-2.19 7.64-4.883l32.638-70.698c1.244-2.69 4.696-4.898 7.664-4.898h6.337c2.953 0 5.392 2.427 5.392 5.39v69.696c0 2.97 2.42 5.393 5.387 5.393h24.296c2.96 0 5.393-2.422 5.393-5.393v-69.696c0-2.963 2.423-5.39 5.386-5.39h6.343c2.967 0 6.396 2.21 7.65 4.898l32.63 70.698c1.24 2.692 4.69 4.883 7.65 4.883h24.293c2.963 0 4.4-2.206 3.138-4.903zM0 158.825C3.42 73.357 72.48 4.31 157.94.89v32.875C90.573 37.13 36.243 91.458 32.874 158.825zm157.94 171.22C72.48 326.624 3.42 257.573 0 172.113h32.874c3.378 67.364 57.7 121.69 125.066 125.057zm171.227-157.933c-3.423 85.46-72.474 154.51-157.94 157.934V297.17c67.364-3.367 121.688-57.694 125.066-125.058zM171.227.892c85.466 3.417 154.517 72.465 157.94 157.933h-32.874c-3.37-67.367-57.7-121.694-125.066-125.06z" stroke-width=".574"/><path d="M711.7 155.67h-1.372l-1.41.215-1.264.107-1.4.215-1.28.345-1.2.295-1.37.404-1.18.485-1.274.544-1.135.504-1.103.684-1.15.656-.99.683-1.083.77-.947.876-.952.835-.877.87-.86 1.034-.83.925-.79 1.044-.672 1.093-.666 1.06-.592 1.194-.65 1.006-.448 1.307-.338 1.146-.442 1.28-.328 1.25-.167 1.306-.162 1.313-.156 1.345v2.646l.156 1.286.16 1.345.168 1.35.328 1.276.442 1.167.338 1.14.447 1.227.652 1.19.592 1.177.667 1.044.673 1.05.79 1.037.83.98.86.93.878.963.953.813.946.86 1.08.717.99.726 1.152.672 1.103.662 1.135.635 1.275.436 1.178.44 1.372.448 1.2.37 1.28.21 1.4.296 1.263.14 1.41.178H713.108l1.35-.178 1.384-.14 1.312-.296 1.324-.21 1.248-.37 1.26-.447 1.188-.442 1.26-.436 1.118-.635 1.157-.662 1.155-.672 1.006-.726 1.018-.716.995-.86.963-.812.866-.963.85-.93.942-.98.672-1.038.738-1.05.66-1.043.55-1.178.576-1.19.484-1.225.414-1.14.44-1.167.26-1.275.263-1.35.21-1.346.043-1.286v-2.646l-.042-1.345-.21-1.313-.263-1.307-.258-1.25-.442-1.28-.414-1.145-.484-1.307-.576-1.006-.55-1.194-.66-1.06-.738-1.092-.672-1.043-.942-.925-.85-1.033-.866-.872-.963-.835-.995-.877-1.017-.77-1.005-.682-1.156-.656-1.158-.684-1.12-.505-1.258-.545-1.19-.484-1.258-.403-1.248-.295-1.324-.345-1.312-.215-1.383-.107-1.35-.216zm0-32l5.454.124 5.46.21 5.257.376 5.24.576 5.058.608 5.036.802 4.955 1.01 4.905.996 4.675 1.21 4.594 1.32 4.428 1.45 4.347 1.54 4.07 1.69 4.03 1.694 3.8 1.86 3.716 1.976 3.48 2.05 3.24 2.12 3.228 2.2 2.888 2.286 2.68 2.49 2.56 2.33 2.228 2.47 2.017 2.62 1.894 2.54 1.615 2.71 1.41 2.738 1.108 2.7.957 2.8.587 2.818.414 2.915.152 2.872-.15 2.835-.415 2.895-.587 2.872-.957 2.798-1.11 2.7-1.408 2.69-1.614 2.626-1.893 2.614-2.017 2.604-2.227 2.48-2.56 2.448-2.68 2.4-2.89 2.297-3.227 2.207-3.24 2.152-3.48 1.994-3.717 1.986-3.8 1.877-4.03 1.77-4.07 1.684-4.348 1.437-4.428 1.523-4.594 1.27-4.675 1.172-4.906 1.092-4.956.937-5.036.808-5.057.71-5.24.5-5.255.328-5.46.296-5.456.06-5.445-.06-5.45-.296-5.234-.328-5.24-.5-5.132-.71-5.062-.807-4.933-.936-4.804-1.092-4.67-1.172-4.606-1.27-4.45-1.523-4.255-1.436-4.16-1.683-4.013-1.77-3.857-1.877-3.615-1.986-3.503-1.995-3.243-2.153-3.192-2.206-2.91-2.296-2.728-2.4-2.512-2.447-2.287-2.48-2.108-2.605-1.796-2.614-1.534-2.625-1.463-2.69-1.088-2.7-1.006-2.8-.597-2.87-.334-2.896-.26-2.835.26-2.873.333-2.916.596-2.82 1.006-2.797 1.087-2.7 1.462-2.74 1.534-2.71 1.796-2.54 2.11-2.56 2.286-2.53 2.512-2.328 2.728-2.492 2.91-2.287 3.19-2.2 3.244-2.12 3.503-2.048 3.615-1.975 3.857-1.86 4.014-1.696 4.16-1.688 4.255-1.54 4.45-1.45 4.604-1.32 4.67-1.21 4.803-.995 4.933-1.01 5.062-.803 5.133-.608 5.24-.576 5.235-.376 5.45-.21zm231.73 11.147l-.345-.925-.092-.872V131.51l.092-.61.27-.618.338-.64.29-.495.366-.457.468-.468.538-.323.667-.367.532-.194.915-.232.79-.194h69.901l.964.194.904.27 1.065.214.92.425.995.457.936.554.877.614.878.64.79.737.71.822.722.764.56.866.49.888.456.834.333.995 29.18 91.827.23 1.012.114.86.113.726-.113.715-.113.7-.155.63-.28.575-.42.5-.338.485-.48.37-.602.437-.608.323-.66.274-.738.226-.77.135-1.06.032h-67.84l-.828-.032-.9-.135-.703-.048-.884-.296-.823-.3-.807-.33-.77-.37-.8-.447-.75-.453-.773-.603-.673-.533-.715-.633-.56-.7-.656-.543-.453-.796-1.587-2.335-3.185 1.474-1.544.646-1.37.66-1.49.62-1.6.58-1.575.587-1.528.592-1.662.555-1.49.467-1.63.5-1.6.447-1.656.512-1.71.458-1.68.425-1.743.478-1.624.345-1.76.323-1.753.388-1.765.37-1.78.21-1.825.275-1.796.275-1.754.177-1.82.242-1.86.145-1.942.237-1.808.026-1.866.162-1.857.08-1.958.092-1.916.02h-1.83l-4.81-.058-4.658-.296-4.556-.28-4.477-.548-4.45-.657-4.39-.79-4.297-.92-4.18-1.124-4.046-1.097-3.927-1.27-3.917-1.496-3.636-1.496-3.59-1.668-3.474-1.72-3.335-1.863-3.125-1.915-2.99-2.034-2.9-2.108-2.728-2.174-2.534-2.292-2.405-2.292-2.19-2.49-1.99-2.507-1.78-2.55-1.642-2.518-1.415-2.733-1.182-2.77-1.108-2.685-.83-2.81-.51-2.775-.393-2.863-.15-2.99v-47.908l.15-.737.162-.79.305-.663.34-.774.376-.662.485-.613.543-.58.63-.485.564-.458.7-.473.62-.308.773-.215.807-.27.78-.107.953-.086h61.884l.88.086.803.108.785.27.7.214.747.307.69.472.612.458.447.484.666.58.436.614.447.662.307.774.252.662.264.79.124.738v49.09l.167 1.367.156 1.335.247 1.18.377 1.257.328 1.28.41 1.168.5 1.146.564 1.216.59 1.092.636 1.14.764.996.726 1.07.812.953.866.882.888.963.963.888.952.785 1.044.717 1.05.753 1.13.683 1.183.624 1.146.635 1.15.436 1.222.44 1.307.447 1.263.372 1.232.21 1.335.295 1.425.14 1.356.178h2.777l1.356-.178 1.323-.14 1.372-.296 1.275-.21 1.345-.37 1.2-.447 1.296-.442 1.13-.436 1.183-.635 1.152-.662 1.085-.672 1.07-.726 1-.716.97-.86.99-.812.893-.963.78-.93.888-.98.796-1.038.624-1.05.71-1.043.55-1.178.655-1.19.394-1.225.51-1.14.36-1.168.276-1.274.21-1.35.145-1.346.204-1.286V180.8l-.06-.894-.144-.937-.146-.942-.145-.888-.14-.887-.2-.92-.268-.888-12.562-39.628zm386.943-9.65l3.814.596 3.777.603 3.674.688 3.69.72 3.487.89 3.594.92 3.49.972 3.32 1.093 3.298 1.047 3.152 1.18 3.17 1.16 3.044 1.308 2.986 1.394 2.808 1.354 2.89 1.43 2.517 1.545 2.517 1.565 2.534 1.598 2.33 1.69 2.254 1.656 2.13 1.806 1.99 1.765 1.948 1.83 1.738 1.82 1.63 1.897 1.63 1.98.62.635.418.834.41.716.338.785.253.904.215.856.21.84V167.02l-.21.844-.097.887-.31.796-.287.753-.37.785-.442.69-.414.585-.592.683-.522.533-.613.5-.624.553-.776.36-.76.415-.714.29-.968.286-73.634 23.267-2.276.636-.392.15-.366.12h-.41l-.343.112h-2.189l-1.005-.167-.958-.29-.876-.306-.957-.377-.785-.564-.802-.646-.673-.597-.613-.748-.683-.7-.484-.87-.382-.91-.327-.92-.215-.98-.27-1.016-.026-.98.027-.887.133-.85.15-.91.35-.785.382-.764.458-.683.403-.726.522-.628.575-.592.743-.597.732-.538.737-.592.812-.393.898-.45.823-.34 1.028-.307 2.82-.942 1.312-.563 1.318-.775 1.12-1.022.973-1.114.87-1.29.646-1.4.295-1.56.18-1.463-.07-1.028-.11-.94-.294-.96-.28-.88-.404-.792-.548-.84-.442-.634-.543-.77-1.098-.963-.952-.754-1.033-.726-1.017-.737-1.08-.608-1.142-.645-1.135-.533-1.238-.517-1.2-.446-1.247-.403-1.25-.387-1.322-.253-1.345-.215-1.312-.108-1.34-.215h-2.689l-1.46.214-1.317.108-1.302.215-1.35.345-1.21.295-1.33.404-1.22.485-1.157.544-1.274.504-1.04.683-1.156.657-1.012.683-1.103.77-.974.876-.856.834-.914.872-.942 1.032-.78.925-.76 1.044-.71 1.092-.64 1.06-.617 1.195-.56 1.006-.55 1.307-.386 1.146-.322 1.28-.3 1.25-.26 1.306-.155 1.312-.097 1.345-.07 1.312.07 1.334.097 1.286.156 1.26.22 1.317.338 1.242.323 1.248.388 1.157.533 1.194.517 1.152.597 1.087.58 1.08.798 1.033.7 1.05.774.995.844.984.85.845.942.898.952.77 1.012.758 1 .742 1.092.64 1.157.64 1.044.598 1.24.565 1.196.463 1.248.372 1.275.37 1.252.372 1.313.21 1.307.22 1.4.086 1.28.13h24.92l.865.037.812.183.656.113.683.29.655.307.65.366.555.474.56.392.576.646.344.64.478.576.275.72.215.608.28.662.047.823v18.25l-.047.757-.28.705-.215.682-.275.748-.478.613-.344.544-.576.575-.56.517-.554.386-.65.42-.657.306-.684.237-.657.188-.813.134-.866.038h-26.48l-3.775-.065-5.375-.27-5.33-.365-5.14-.586-5.094-.635-5.046-.765-4.95-.963-4.74-1.135-4.674-1.194-4.52-1.265-4.513-1.474-4.255-1.51-4.132-1.685-3.932-1.804-3.8-1.845-3.673-1.963-3.447-1.985-3.357-2.124-3.035-2.31-2.882-2.242-2.787-2.308-2.44-2.518-2.24-2.49-2.082-2.508-1.866-2.646-1.566-2.658-1.377-2.625-1.077-2.787-.936-2.798-.645-2.786-.442-2.91-.08-2.82.08-2.873.442-2.916.7-2.82.88-2.797 1.077-2.7 1.376-2.74 1.614-2.71 1.818-2.54 2.136-2.62 2.27-2.47 2.497-2.328 2.723-2.492 2.9-2.287 3.126-2.2 3.307-2.12 3.513-2.048 3.7-1.975 3.79-1.86 3.98-1.696 4.105-1.688 4.38-1.54 4.432-1.45 4.492-1.32 4.803-1.21 4.767-.995 5.008-1.01 4.94-.803 5.185-.608 5.23-.576 5.282-.376 5.412-.21 5.455-.124 4.12.05 4.058.1 4.056.254 3.874.307 3.954.41zm-130.17 3.592l.597.49.484.623.544.495.392.726.34.65.155.787.19.69.198.84.086.886v16.914l-.087.86-.2.75-.188.725-.156.754-.34.633-.392.657-.544.607-.484.538-.597.544-.662.462-.558.392-.662.388-.688.22-.84.264-.77.02h-6.45l-1.393.287-1.367.285-1.345.355-1.162.66-1.178.6-1.07.78-1.03.816-.962.946-.904 1.028-.726 1.08-.7 1.152-.532 1.222-.468 1.264-.27 1.334-.24 1.372-.087 1.35.014.608v.517l.12.565.014.44.103.512.076.56.113.462.155.414 9.35 29.37.216.838.21.812.264.866.15.775.07.872.076.87.14.91v1.957l-.14 1.076-.145.985-.15 1.135-.36 1.033-.248 1.01-.345 1.03-.447.935-.403.975-.457.904-.624.94-.602.877-.645.85-.587.823-.742.807-.7.764-.828.657-.8.737-.948.576-.834.662-.93.624-.856.473-1.065.403-.99.468-1.044.426-1.04.3-1.086.324-1.114.21-1.017.29-1.156.097-1.152.07H1074.513l-.877-.032-.834-.135-.687-.226-.71-.183-.727-.413-.554-.436-.56-.37-.656-.505-.452-.538-.435-.61-.432-.73-.344-.7-.226-.64-.167-.737-.155-.775-.037-.855v-16.968l.037-.904.156-.736.168-.72.226-.712.344-.688.43-.727.436-.564.506-.597.603-.484.58-.43.684-.415.635-.382.742-.205.72-.215.765-.113H1079.966l1.4-.258 1.285-.253 1.297-.442 1.193-.587 1.253-.574 1.19-.737.962-.867.98-.99.855-.97.774-1.075.608-1.21.592-1.216.48-1.2.316-1.404.173-1.366.095-1.474v-.614l-.094-.656-.038-.613-.135-.646-.15-.61-.167-.698-.103-.544-.23-.538-9.033-28.78-.4-.97-.123-.807-.145-.694-.15-.856-.14-.673-.027-.78-.037-.833-.08-.774.08-1.082.065-1.188.14-1.01.274-1.093.146-.99.398-1.007.264-1.044.47-.98.408-.995.457-.888.618-.85.564-.963.684-.818.65-.71.673-.887.78-.755.785-.7.774-.66.897-.625.86-.635.932-.613.957-.49.995-.435.974-.484 1.043-.44 1.01-.324 1.087-.308 1.147-.215 1.102-.188 1.2-.136 1.065-.14h91.324l.828.086.77.108.84.23.687.254.66.307.56.322zM610.478 233.234l-.355.5-.366.485-.452.37-.575.437-.592.323-.732.274-.656.226-.877.135-.984.032h-67.647l-1.125-.032-.968-.135-.872-.29-1.01-.242-.98-.44-.952-.46-.98-.585-.893-.598-.87-.613-.776-.785-.694-.743-.71-.812-.576-.775-.49-.887-.483-.915-.27-.952-18.086-56.73-.285-1.028-.44-1.017-.513-1.07-.66-.963-.765-.893-.7-.893-.898-.82-.84-.693-.93-.662-.973-.597-1.11-.484-1.13-.457-1.07-.323-1.172-.307-1.15-.14H491.06l-1.404.286-1.41.35-1.323.494-1.345.656-1.145.732-1.093.84-1.086.914-.893 1.037-.883 1.13-.726 1.157-.58 1.36-.512 1.243-.344 1.47-.264 1.344-.07 1.49v53.837l-.124.797-.103.812-.15.73-.296.738-.317.7-.41.678-.434.634-.577.538-.5.5-.62.447-.655.437-.76.414-.677.184-.773.226-.754.135-.93.032h-61.255l-.86-.032-.802-.135-.764-.226-.775-.183-.678-.413-.71-.436-.5-.445-.593-.5-.5-.54-.495-.633-.452-.678-.275-.7-.268-.737-.237-.73-.113-.813V98.224l.113-.737.237-.813.268-.758.275-.635.452-.71.495-.618.5-.48.592-.57.5-.456.71-.382.677-.377.775-.253.764-.156.8-.172H470.834l.754.172.774.156.68.253.758.377.656.382.62.457.5.57.575.48.434.618.41.71.317.636.297.758.15.705.103.844.123.882v13.466l.103 1.382.23 1.437.346 1.41.51 1.25.635 1.273.71 1.25.845 1.075.936 1.092 1.06.903 1.108.786 1.114.736 1.345.597 1.323.5 1.41.345 1.49.285 1.33.02h66.94v.276l2.405-.276h.968l1.002.14.952.054.985.145.983.205.914.172.92.27.888.29.888.284.77.377.854.4.845.392.812.57.84.344.737.538.77.555.592.52.715.635.65.667.658.587.608.682.64.645.484.69.597.747.463.737.446.813.463.72.377.814.333.87.307.803.29.877.28.963 26.83 84.71.28.9.193.86V231.33l-.194.76-.194.57z" stroke-width="1.072"/></g></svg>