<?xml version="1.0" encoding="UTF-8"?>
<svg width="337px" height="60px" viewBox="0 0 337 60" version="1.1" xmlns="http://www.w3.org/2000/svg" xmlns:xlink="http://www.w3.org/1999/xlink">
    <g id="Page-1" stroke="none" stroke-width="1" fill="none" fill-rule="evenodd">
        <g id="Artboard" transform="translate(-181.000000, -40.000000)" fill="#D20A11" fill-rule="nonzero">
            <g id="Martes-sport-–-logo" transform="translate(181.000000, 40.000000)">
                <path d="M44.599605,23.6133122 C48.8704024,20.3645008 55.6958776,19.0259905 60.7987328,19.0259905 C68.9633012,19.0259905 79,20.7933439 79,31.1050713 C78.9959594,32.102088 78.8826081,33.0956589 78.6619765,34.0679873 C76.6208344,44.2107765 75.2752407,49.8896989 73.11059,60 L62.4368469,60 L67.7542171,34.8152139 C67.9767594,33.8709096 68.103079,32.9065093 68.1312433,31.936767 C68.1312433,28.4865293 65.024027,27.2649762 61.3967745,27.2649762 L59.9406731,27.2649762 C51.4445816,27.2649762 48.1553526,30.7671949 47.1672838,35.3805071 L41.9084177,60 L31.1501687,60 L36.6040484,34.8152139 C36.8265907,33.8709096 36.9529103,32.9065093 36.9810746,31.936767 C36.9810746,28.4865293 33.8738583,27.2649762 30.2466058,27.2649762 L28.7905044,27.2649762 C20.2944129,27.2649762 17.0051839,30.7671949 16.0171151,35.3805071 L10.7517485,60 L0,60 L5.43437834,34.5942948 C7.77454127,23.6328051 18.6367975,19.0454834 28.9660166,19 C34.5824076,19 41.0828602,19.8381933 44.5671028,23.5873217 L44.599605,23.6133122 Z" id="Shape"></path>
                <path d="M97.9844954,27.2481358 L99.7536247,19 L120.715523,19 C128.914882,19 138.99435,20.8018404 138.99435,30.7087101 C139.017957,31.3067087 138.967528,31.9053273 138.844202,32.491036 L132.968865,60 L99.7405684,60 C89.5892912,60 85,55.0563224 85,46.951293 C85,35.7174361 94.4788775,31.4437569 102.371414,31.4437569 L128.098863,31.4437569 C128.098863,28.6726955 125.441905,27.2481358 121.303056,27.2481358 L97.9844954,27.2481358 Z M123.875148,51.758369 L126.440712,39.7114073 L104.571401,39.7114073 C98.7744018,39.7114073 95.5429663,41.5848009 95.5429663,46.2162462 C95.5429663,49.1108996 96.8485968,51.758369 101.699014,51.758369 C102.390998,51.758369 104.395141,51.8104077 105.446174,51.8104077 L123.875148,51.758369 Z" id="Shape"></path>
                <path d="M152.75594,60 L142,60 L147.954644,31.8190038 C150.196544,21.5494924 160.49892,19 170.354212,19 L181,19 L179.12743,27.1687817 L170.315335,27.2468274 C161.892009,27.2468274 158.969762,30.6157995 158.00432,35.3375635 L152.75594,60 Z" id="Shape"></path>
                <path d="M194.07392,45.485764 C193.88612,46.249959 193.785709,47.033089 193.774625,47.8200391 C193.774625,50.67594 195.349178,51.7322321 199.630399,51.7322321 L211.400506,51.7322321 C211.400506,51.7322321 209.90403,58.904586 209.825953,59.3936101 L209.676306,60 L197.314115,60 C190.566962,60 183,57.8939361 183,48.9545751 C183.005133,47.5646807 183.155603,46.1791521 183.448943,44.8206912 L193.026387,0 L203.748961,0 L199.70197,18.8567703 L219,18.8567703 L217.243268,27.1245381 L197.97777,27.0462943 L194.07392,45.485764 Z" id="Shape"></path>
                <path d="M274.552487,39.7081218 L231.874593,39.7081218 C231.608301,40.8883258 231.477224,42.0949437 231.483889,43.3047272 C231.483889,50.7971129 239.213315,51.7596764 247.541821,51.7596764 L271.967329,51.7596764 L270.20265,60 L242.762209,60 C226.404738,60 221,52.8002855 221,43.9551079 C221,31.071066 230.155496,19 257.315931,19 L279,19 L277.209274,27.2468274 L257.524307,27.2468274 C250.569777,27.2468274 243.055237,28.1768718 237.891434,31.441783 L276.310655,31.441783 L274.552487,39.7081218 Z" id="Shape"></path>
                <path d="M336.986969,43.2435348 C336.986969,53.5537046 328.425747,60 310.92541,60 L279,60 L280.791732,51.7518642 L311.277241,51.7518642 C323.88452,51.7518642 326.666592,47.7058544 326.666592,44.2582897 C326.666592,40.9603363 324.340598,39.7049024 319.082678,39.7049024 L296.904291,39.7049024 C292.682319,39.7049024 286.323298,37.8835475 286.323298,30.4680311 C286.323298,23.2671744 292.323972,19 300.956864,19 L333.931251,19 L332.198158,27.241631 L301.035048,27.241631 C299.230285,27.241631 296.917322,27.4693003 296.917322,29.6354117 C296.917322,31.1380295 298.031454,31.4372521 300.05774,31.4372521 L321.232757,31.4372521 C329.702763,31.4372521 337,33.7204506 337,43.2435348 L336.986969,43.2435348 Z" id="Shape"></path>
                <path d="M231.930778,2.85838795 L229.998703,2.85838795 C230.082944,2.67523908 230.072319,2.45588373 229.970874,2.28386418 C229.86943,2.11184464 229.692782,2.01364004 229.508207,2.02665197 C229.157098,1.98046463 228.832487,2.24045029 228.760501,2.62550187 C228.509271,3.95627943 231.918814,3.56370005 231.386447,6.61783454 C231.081383,8.33453759 229.873088,9.07977302 228.281968,8.99327248 C226.690848,8.90677194 225.739765,7.80222657 226.062774,6.02563853 L228.024757,6.02563853 C227.851289,6.69102731 228.204207,6.92391338 228.581051,6.93722115 C228.973769,7.00515124 229.342262,6.70811813 229.406519,6.27183238 C229.615877,5.0608248 226.325967,5.23382588 226.828426,2.35269248 C227.103582,0.729143858 228.281968,-0.0626687872 229.819253,0.00387009061 C231.356539,0.0704089684 232.26575,1.14833879 231.930778,2.85838795 Z" id="Shape"></path>
                <path d="M251,9 L252.843408,0 L255.522932,0 C257.214917,0 258.35388,1.20045732 257.899612,3.38185976 L257.814025,3.74542683 C257.359756,5.9679878 256.273463,7.07926829 254.522225,7.07926829 L253.607105,7.07926829 L253.212089,9 L251,9 Z M254.581478,2.1402439 L254.008705,4.88414634 L254.410304,4.88414634 C254.838238,4.88414634 255.450513,4.76067073 255.674355,3.67682927 L255.746775,3.34756098 C255.964034,2.26371951 255.450513,2.11966463 254.976494,2.11966463 L254.581478,2.1402439 Z" id="Shape"></path>
                <path d="M278.063321,6.00221076 L278.662138,3.00442152 C279.01544,1.16064849 280.039417,0 281.656224,0 C283.27303,0 284.291019,1.13411938 283.925741,3.00442152 L283.356864,6.00221076 C283.00955,7.83935151 281.967609,9 280.362779,9 C278.757949,9 277.727983,7.86588062 278.063321,6.00221076 Z M280.644223,2.93146647 L280.045406,6.07516581 C279.901689,6.81798084 280.243015,6.90420044 280.524459,6.90420044 C280.805903,6.90420044 281.201123,6.81798084 281.344839,6.07516581 L281.943656,2.93146647 C282.087372,2.18201916 281.752034,2.09579956 281.440649,2.09579956 C281.129265,2.09579956 280.805903,2.18201916 280.662187,2.93146647 L280.644223,2.93146647 Z" id="Shape"></path>
                <path d="M304,9 L305.844031,0 L308.478361,0 C310.177503,0 311.356366,1.20045732 310.901944,3.38185976 L310.842671,3.62195122 C310.585824,4.91844512 310.091888,6.00228659 309.176458,6.5304878 L309.676981,9 L307.339013,9 L307.108509,6.94207317 L306.63433,6.94207317 L306.212837,9 L304,9 Z M307.582688,2.1402439 L307.036065,4.78125 L307.4378,4.78125 C307.865879,4.78125 308.478361,4.65091463 308.695693,3.56707317 L308.735208,3.36814024 C308.95254,2.28429878 308.452017,2.1402439 307.977838,2.1402439 L307.582688,2.1402439 Z" id="Shape"></path>
                <polygon id="Shape" points="336.612221 2.18140244 335.290247 2.18140244 334.032902 9 332.094007 9 333.321974 2.18140244 332 2.18140244 332.405405 0 337 0"></polygon>
            </g>
        </g>
    </g>
</svg>
