<?xml version="1.0" encoding="utf-8"?>
<!-- Generator: Adobe Illustrator 13.0.2, SVG Export Plug-In . SVG Version: 6.00 Build 14948)  -->
<!DOCTYPE svg PUBLIC "-//W3C//DTD SVG 1.0//EN" "http://www.w3.org/TR/2001/REC-SVG-20010904/DTD/svg10.dtd">
<svg version="1.0" id="Layer_1" xmlns="http://www.w3.org/2000/svg" xmlns:xlink="http://www.w3.org/1999/xlink" x="0px" y="0px"
	 width="175.749px" height="40.735px" viewBox="0 0 175.749 40.735" enable-background="new 0 0 175.749 40.735"
	 xml:space="preserve">
<g>
	<path fill="#E2001A" d="M9.239,7.349L0,3.36v37.375h8.189V20.367l12.388,20.158l0.63,0.21h6.299l-0.21-28.136l-7.559-2.1v0.21
		v14.278l-0.419-0.84L9.239,7.349z"/>
	<path fill="#E2001A" d="M87.979,13.438h-0.21L79.79,0h-9.869L83.36,19.948v20.787h8.818l0.21-20.787L105.827,0.21V0h-9.869
		l-0.42,0.84l-7.56,12.388l0,0V13.438z"/>
	<path fill="#E2001A" d="M140.682,14.068l-5.67,1.05l-3.99,7.559v-0.21v-6.929h-0.209l-6.09,0.839v24.357h6.299v-9.659l4.831,9.449
		l0,0l6.509,0.21l-0.21-0.63l-6.299-12.598l-0.42-1.05l0.42-0.841l5.668-11.758h-0.209L140.682,14.068z"/>
	<path fill="#E2001A" d="M175.539,8.609l-2.94-3.36L157.9,9.868v30.867h6.718V27.716l3.99-0.209v13.228h7.141V26.457l-2.101-3.15
		l1.891-3.359V8.609z M164.618,14.278l3.99-1.05v6.72l-0.418,0.21l-3.572,0.419V14.278z"/>
	<path fill="#E2001A" d="M155.38,13.018l-0.211-2.309l-12.599,2.939v27.086H155.8v-6.72l0,0l-0.631-0.209h-5.459v-5.25l5.67-0.63
		v-6.929l-5.249,0.839h-0.421v-3.779l5.67-1.681V13.018z"/>
	<path fill="#E2001A" d="M122.205,19.737l-2.309-2.52l-10.289,1.05l-0.211,0.42v22.047h5.251v-9.029h2.518v9.029h5.249
		l-0.209-10.289l-1.259-1.681v-0.209l1.259-1.68V19.737z M117.374,22.047l-0.209,4.619l-2.518,0.21v-4.829H117.374z"/>
	<path fill="#E2001A" d="M107.506,21.417l-0.42-0.419l-2.521-2.31l-0.629-0.21l-5.46,0.42l-1.05,0.419l-2.729,2.52v15.328l3.36,3.36
		l6.089,0.21l0.21-0.21l2.939-3.36l0.21-1.259V21.417z M99.527,23.727h3.15v12.598h-3.15V23.727z"/>
	<path fill="#E2001A" d="M74.541,19.108l-0.21,0.209l-2.939,10.08l0,0l-2.939-10.919l-0.631-0.21l-5.668-0.419l-4.2,11.549
		l-2.31-12.179h-0.21l-0.629-0.209l-6.509-1.05l5.25,24.776l6.719-0.21l4.619-12.389l3.36,12.389l0.629,0.21h5.67l0.21-0.421
		l0.63-1.05l5.459-19.737L74.541,19.108z"/>
	<path fill="#E2001A" d="M46.615,21.837v-6.089l-16.168-2.52v27.507h17.637v-6.72h-9.238v-3.989h7.559v-5.039l-7.559-0.629v-3.36
		L46.615,21.837z"/>
</g>
</svg>
