<svg xmlns="http://www.w3.org/2000/svg" preserveAspectRatio="xMidYMid meet"  xmlns:xlink="http://www.w3.org/1999/xlink" viewBox="0 0 313.1 175"><defs><path id="a" d="M0 0h313.1v175H0z"/></defs><clipPath id="b"><use xlink:href="#a" overflow="visible"/></clipPath><path clip-path="url(#b)" fill="#0A69B3" d="M313.2 175H0V0h313.2"/><path fill="#E30D18" d="M273.2 87.4c0 26.2-52.1 47.4-116.5 47.4-64.3 0-116.5-21.2-116.5-47.4S92.3 40 156.7 40c64.3 0 116.5 21.2 116.5 47.4z"/><path fill="#FFF" d="M64.3 107.4l6.3-40h16c2.9 0 5.3.4 7.4 1.4 2 .9 3.5 2.4 4.4 4.3s1.1 4.4.7 7.5c-.8 4.7-2.5 8.1-5.3 10.3s-6.4 3.3-11 3.3h-5.9l-2.1 13.3-10.5-.1zm15.5-31.6l-1.6 10H80c1.3 0 2.5 0 3.6-.2 1.2-.2 2.1-.6 3-1.3.8-.7 1.4-1.8 1.6-3.4.2-1.6.1-2.8-.5-3.6-.6-.7-1.4-1.2-2.5-1.3-1.1-.2-2.3-.2-3.7-.2h-1.7zM132.9 76.2h-18.5l-1.1 6.7h17.9l-1.4 8.8h-17.9l-1.1 6.9h18.5l-1.4 8.8H99l6.4-40h28.8M133.4 107.4l6.3-40h15.9c2.9 0 5.3.4 7.4 1.4 2 .9 3.5 2.4 4.4 4.3s1.1 4.4.7 7.5c-.8 4.7-2.5 8.1-5.3 10.3-2.8 2.2-6.4 3.3-11 3.3h-5.9l-2.1 13.3-10.4-.1zm15.4-31.6l-1.6 10h1.7c1.3 0 2.5 0 3.6-.2 1.2-.2 2.1-.6 3-1.3.8-.7 1.4-1.8 1.6-3.4.2-1.6.1-2.8-.5-3.6-.6-.7-1.4-1.2-2.5-1.3-1.1-.2-2.3-.2-3.7-.2h-1.6zM203.8 68.3l-2 12.5c-.9-1.4-2-2.5-3.5-3.3-1.5-.7-3.1-1.1-4.9-1.1-2.1 0-4.1.5-5.8 1.5-1.7 1-3.2 2.3-4.3 4s-1.9 3.5-2.2 5.6c-.5 3.2.1 5.8 1.8 7.8 1.6 2 4.1 3 7.4 3.1 1.7 0 3.4-.4 5.1-1.1 1.7-.8 3.2-1.8 4.5-3.1l-2 12.5c-1.8.5-3.4 1-4.9 1.3s-3 .5-4.6.5c-2.8 0-5.4-.5-7.8-1.5-2.4-1-4.5-2.5-6.3-4.4-1.9-2-3.1-4.3-3.8-6.8-.6-2.6-.7-5.3-.2-8.3.4-2.8 1.4-5.4 2.8-7.9s3.2-4.8 5.4-6.8c2.3-2 4.9-3.6 7.7-4.8 2.8-1.1 5.7-1.7 8.5-1.7 3.2.1 6.3.7 9.1 2M230 66.1c3.9 0 7.4.9 10.4 2.7 3.1 1.7 5.4 4.1 7 7.2s2.1 6.7 1.5 10.7c-.7 4.3-2.3 8.2-4.7 11.5-2.4 3.3-5.4 5.9-9 7.8s-7.6 2.8-11.9 2.8-8-1-11-2.8c-3-1.9-5.2-4.5-6.6-7.8-1.4-3.3-1.7-7.1-1.1-11.5.7-4.1 2.3-7.6 4.9-10.7s5.6-5.5 9.2-7.2c3.6-1.8 7.4-2.7 11.3-2.7m-1.6 10c-2.1 0-4.1.5-5.9 1.5-1.9 1-3.4 2.3-4.7 3.9-1.3 1.6-2.1 3.3-2.4 5.2-.3 2.3-.2 4.4.6 6.2.7 1.8 1.9 3.2 3.4 4.2s3.4 1.5 5.4 1.6c2.1 0 4.1-.5 5.9-1.6 1.9-1 3.4-2.4 4.7-4.2 1.3-1.8 2.1-3.8 2.5-6.2.3-1.9 0-3.6-.7-5.2-.8-1.6-1.9-2.9-3.5-3.9-1.4-.9-3.2-1.4-5.3-1.5z"/><path fill="#FFF" d="M267.4 87.5c0-4.4-1.7-9.4-4.7-13.3-2.3-3.4-6.6-6.3-10.4-8.6 6.2 5.3 8.8 12.6 8.8 19 0 20.5-31.9 37.8-73.4 44.2-20.9 3.3-23.3 3.9.4 1.2 43.8-5 79.3-22 79.3-42.5z"/><path fill="#FFDD09" d="M97.6 39.9c136.5-28.7 193.1 17.5 186.5 47.5-.1.4-.1.9-.2 1.3C304 58.6 289.4 4.2 184 16c-22.6 2.5-56.2 12.1-86.4 23.9zM215.8 135C79.3 163.8 22.7 117.6 29.3 87.5c.1-.4.1-.9.2-1.3-20.1 30.1-5.5 84.5 99.9 72.7 22.6-2.6 56.2-12.2 86.4-23.9z"/></svg>