<?xml version="1.0" encoding="utf-8"?>
<!-- Generator: Adobe Illustrator 21.0.2, SVG Export Plug-In . SVG Version: 6.00 Build 0)  -->
<svg version="1.1" id="Warstwa_1" xmlns="http://www.w3.org/2000/svg" x="0px" y="0px"
     viewBox="0 0 380 140" style="enable-background:new 0 0 380 140;" xml:space="preserve">
<style type="text/css">
	.st0{fill-rule:evenodd;clip-rule:evenodd;fill:#22252A;}
</style>
<path class="st0" d="M68.699,80.094c0,5.252-1.288,9.81-3.869,13.678c-5.526,8.016-15.105,12.019-28.737,12.019
	c-9.304,0-17.271-2.119-23.903-6.354C4.822,94.65,1.091,88.201,1,80.094h20.032c0,3.593,1.567,6.403,4.697,8.429
	c2.764,1.75,6.173,2.625,10.225,2.625c3.592,0,6.679-0.689,9.257-2.072c2.671-1.474,4.008-3.36,4.008-5.665
	c0-3.04-3.915-5.435-11.745-7.185c-11.606-2.671-18.928-4.744-21.968-6.217c-7.83-3.776-11.745-9.58-11.745-17.408
	c0-4.607,1.107-8.798,3.316-12.573c2.212-3.776,5.941-6.77,11.193-8.981c5.25-2.302,10.914-3.453,16.992-3.453
	c8.292,0,15.245,1.98,20.863,5.941c6.449,4.421,9.902,10.684,10.364,18.791H47.284c-1.012-6.54-5.342-9.81-12.987-9.81
	c-3.133,0-5.85,0.689-8.152,2.072c-2.302,1.381-3.453,3.131-3.453,5.25c0,2.764,3.959,5.02,11.882,6.77
	c11.513,2.58,18.928,4.653,22.244,6.217C64.738,66.693,68.699,72.45,68.699,80.094z"/>
<path class="st0" d="M165.2,103.582h-19.482V59.094c0-5.159-0.782-8.798-2.349-10.914c-1.935-2.488-5.389-3.732-10.362-3.732
	c-10.041,0-15.061,5.665-15.061,16.995v42.139h-19.48v-73.64h18.651v6.909c0,2.671,0.046,4.005,0.139,4.005
	c0-0.093,0.044-0.137,0.137-0.137c2.302-4.054,5.572-7.185,9.81-9.396c4.33-2.302,8.888-3.453,13.678-3.453
	c9.763,0,16.857,3.822,21.278,11.467c2.026,3.685,3.04,8.106,3.04,13.265V103.582z"/>
<path class="st0" d="M237.447,80.094c0,5.252-1.288,9.81-3.869,13.678c-5.526,8.016-15.105,12.019-28.737,12.019
	c-9.304,0-17.271-2.119-23.903-6.354c-7.368-4.788-11.1-11.237-11.19-19.343h20.032c0,3.593,1.567,6.403,4.697,8.429
	c2.764,1.75,6.173,2.625,10.225,2.625c3.593,0,6.679-0.689,9.257-2.072c2.671-1.474,4.008-3.36,4.008-5.665
	c0-3.04-3.915-5.435-11.745-7.185c-11.606-2.671-18.927-4.744-21.968-6.217c-7.83-3.776-11.745-9.58-11.745-17.408
	c0-4.607,1.107-8.798,3.316-12.573c2.212-3.776,5.941-6.77,11.193-8.981c5.25-2.302,10.914-3.453,16.992-3.453
	c8.292,0,15.245,1.98,20.863,5.941c6.449,4.421,9.902,10.684,10.364,18.791h-19.206c-1.012-6.54-5.342-9.81-12.987-9.81
	c-3.133,0-5.85,0.689-8.153,2.072c-2.302,1.381-3.453,3.131-3.453,5.25c0,2.764,3.959,5.02,11.882,6.77
	c11.513,2.58,18.928,4.653,22.244,6.217C233.486,66.693,237.447,72.45,237.447,80.094z"/>
<path class="st0" d="M307.795,103.582h-18.099c-0.554-1.012-1.153-2.991-1.796-5.941c-4.514,4.975-11.698,7.459-21.554,7.459
	c-6.816,0-12.434-1.562-16.855-4.695c-5.159-3.683-7.737-9.027-7.737-16.027c0-10.039,3.913-16.948,11.743-20.724
	c3.592-1.752,10.914-3.316,21.968-4.699c7.83-1.012,11.745-3.131,11.745-6.354c0-2.857-1.198-5.113-3.593-6.772
	c-2.302-1.75-5.02-2.625-8.152-2.625c-3.224,0-5.988,0.875-8.29,2.625c-2.157,1.619-3.541,3.786-4.151,6.499h-18.825
	c0.574-5.231,2.1-9.516,4.186-12.854c2.395-3.685,6.217-6.54,11.469-8.566c4.881-1.843,10.408-2.764,16.579-2.764
	c20.909,0.183,31.364,10.179,31.364,29.981V103.582z M287.208,67.66c-1.935,1.567-5.342,2.81-10.225,3.732
	c-5.526,1.012-9.118,1.98-10.777,2.901c-3.407,1.75-5.11,4.79-5.11,9.118c0,5.528,2.901,8.29,8.703,8.29
	c2.671,0,5.435-0.599,8.292-1.796c2.855-1.288,5.02-2.808,6.493-4.558c1.933-2.395,2.901-5.941,2.901-10.64
	c0-0.829-0.046-2.026-0.139-3.59C287.254,69.549,287.208,68.398,287.208,67.66z"/>
<rect x="73.232" y="0.911" class="st0" width="19.48" height="19.48"/>
<rect x="73.231" y="66.753" class="st0" width="19.48" height="36.821"/>
<path class="st0" d="M379.719,107.727c0,9.763-3.5,17.591-10.501,23.488c-6.447,5.25-14.184,7.874-23.212,7.874
	c-8.842,0-16.303-2.578-22.383-7.737c-6.723-5.802-10.086-13.724-10.086-23.764h18.099c0,4.697,1.383,8.382,4.145,11.053
	c2.395,2.395,5.435,3.593,9.12,3.593c4.052,0,7.598-1.381,10.638-4.145c3.224-3.133,4.836-7.231,4.836-12.297V94.464
	c-1.381,3.316-3.915,5.895-7.6,7.737c-3.592,1.84-7.645,2.762-12.158,2.762c-7.185,0-13.309-2.116-18.375-6.354
	c-5.804-4.881-8.705-11.606-8.705-20.172V29.942h19.482v45.595c0,9.118,4.145,13.678,12.434,13.678c4.421,0,8.013-1.29,10.777-3.869
	c2.764-2.581,4.145-5.85,4.145-9.81V29.942h19.343V107.727z"/>
</svg>
