<svg xmlns="http://www.w3.org/2000/svg" width="74" height="36">
    <path fill="#231F20" fill-rule="evenodd" d="M65.178 8.986H52.264c-2.608 0-3.778 1.002-3.959 2.793l-2.291 24.232H35.391l2.17-22.624C38.335 4.851 42.597.388 50.353-.004h23.66c-.827 5.654-3.895 8.946-8.835 8.99zM24.442 36.011l.628-6.499.81-8.388.86-8.466-11.329 8.466h8.971l-.815 8.388H4.519c-3.115 0-4.791-1.578-4.493-4.69.153-1.596.771-2.678 3.452-4.636L28.505 1.113C30.445-.164 32.091.017 32.99.017c1.797 0 4.313 1.093 4.116 3.566l-3.203 32.428h-9.461zm40.377-20.465c-.818 5.666-3.705 8.355-8.644 8.408h-7.517l.808-8.408h15.353z"/>
</svg>
