<svg id="Warstwa_1" data-name="Warstwa 1" xmlns="http://www.w3.org/2000/svg" viewBox="0 0 193.39 41.05">
    <title>ikony</title>
    <path fill="#bb0029"
          d="M0,31.1H7.74V18.4A3.3,3.3,0,0,1,8,17.13a2.52,2.52,0,0,1,2.49-1.71c1.94,0,2.76,1.53,2.76,4.07V31.1H21V18.61c0-6.08-2.62-9.54-7.4-9.54a7.25,7.25,0,0,0-5.72,2.76H7.74V0H0Z"/>
    <path fill="#bb0029"
          d="M45.45,31.07h7.68V18.72a4,4,0,0,1,.21-1.57,2.58,2.58,0,0,1,2.42-1.8c1.75,0,2.5,1.58,2.5,4V31.07h7.67V18.77a5.07,5.07,0,0,1,.22-1.58,2.51,2.51,0,0,1,2.42-1.84c1.75,0,2.54,1.53,2.54,4.2V31.07h7.68V18.37c0-6-2.68-9.33-7.33-9.33a8.18,8.18,0,0,0-3.82.88,9,9,0,0,0-3,2.54h-.09C63.65,10.31,61.5,9,58.74,9a7.59,7.59,0,0,0-6.36,3.16H52.2l-.3-2.68H45.27c.09,2,.18,4.47.18,7.32Z"/>
    <path fill="#bb0029"
          d="M94.89,18.35H87.2a3.84,3.84,0,0,1,3.94-4.14c2,0,3.75,2.19,3.75,4.14m8.46,3.87c.12-7.72-4.64-13.17-12.53-13.17-6.84,0-12.09,4.47-12.09,11.46,0,7.15,5.29,11,12.13,11,5,0,10.34-1.74,11.8-7h-8.1a3.37,3.37,0,0,1-3.17,1.87,4.1,4.1,0,0,1-4.19-4.18Z"/>
    <path fill="#bb0029"
          d="M36.82,20.31c0,3.46-1.26,5.69-3.51,5.69-2.61,0-3.73-2.49-3.73-5.69,0-2.85.93-5.7,3.69-5.7,2.52,0,3.55,2.72,3.55,5.7m8.69-.22c0-6.48-4.77-11-12-11-7.85,0-12.66,4.56-12.66,11.39,0,7,5.32,11.13,12.19,11.13,6.45,0,12.43-3.64,12.43-11.48"/>
    <path fill="#bb0029"
          d="M191,5.19a1.87,1.87,0,0,1,1.86,1.95A1.85,1.85,0,0,1,191,9.07a1.89,1.89,0,0,1-1.9-1.95A1.89,1.89,0,0,1,191,5.19Zm0-.42a2.37,2.37,0,1,0,2.4,2.35A2.36,2.36,0,0,0,191,4.77Zm-.43,1.5a1.39,1.39,0,0,1,.35,0c.45,0,.6.16.6.39s-.3.4-.64.4h-.31Zm0,1.12h.3c.35,0,.51.12.57.38a1.57,1.57,0,0,0,.2.65h.47a1.68,1.68,0,0,1-.18-.62.73.73,0,0,0-.41-.59v0a.63.63,0,0,0,.48-.59.64.64,0,0,0-.25-.52,1.27,1.27,0,0,0-.78-.19,4.27,4.27,0,0,0-.86.08V8.42h.46Z"/>
    <path fill="#bb0029"
          d="M121.91,25.77c-2.32,2.6-4.54,3.95-6.65,3.95a5.48,5.48,0,0,1-5.55-5.48c0-2.88,1.72-4.2,4.18-5.95l1.15-.85Zm-5-11.6-1.18.81-1.47-2a5.38,5.38,0,0,1-1.22-3,3.33,3.33,0,0,1,6.62,0c0,1.53-.93,2.95-2.75,4.2m6.44,10.14-6.44-7.94c3.22-2.06,4.83-3.84,4.83-6.37,0-2.81-2.11-4.84-5.19-4.84-3.4,0-5.73,2.06-5.73,4.66,0,2,1,3.31,2.08,4.77l1,1.32c-4.33,2.78-6.51,5.23-6.51,8.44,0,4,3,7.26,7.69,7.26,3,0,5.51-1.43,8-4.31l3.14,3.7h2.59l-4.37-5.12A34.89,34.89,0,0,0,128,21h-2.19c-.77,1.15-1.55,2.28-2.41,3.33"/>
    <path fill="#bb0029"
          d="M128,9.49l8,20a2.81,2.81,0,0,1,.27.94,3.11,3.11,0,0,1-.27,1,17.41,17.41,0,0,1-3.61,5.45,11.32,11.32,0,0,1-3.79,2.38l.68,1.8a12.37,12.37,0,0,0,3.78-2.25c2.85-2.47,4.69-6.48,7.31-13.19l6.49-16.12h-2.3l-5.27,14c-.68,1.76-1.22,3.43-1.67,4.78h-.09c-.41-1.4-1-3.11-1.58-4.64L130.29,9.49Z"/>
    <path fill="#bb0029"
          d="M164.39,20.22c0,5.54-3.56,9.59-8.07,9.59s-7.89-4-7.89-9.45c0-4.64,2.52-9.59,8-9.59,5.69,0,7.94,5.49,7.94,9.45m2.16-.13C166.55,13.47,162.5,9,156.5,9c-5.37,0-10.24,4.05-10.24,11.48,0,6.76,4.33,11.12,9.92,11.12,4.83,0,10.37-3.42,10.37-11.52"/>
    <path fill="#bb0029"
          d="M186.14,9.49H184V23a7.93,7.93,0,0,1-.45,2.39,7,7,0,0,1-6.36,4.37c-4.28,0-5.77-3.38-5.77-8.06V9.49h-2.12V22.05c0,8.2,4.6,9.55,7.35,9.55a8.39,8.39,0,0,0,7.44-4.32h.09l.13,3.82h2c-.09-1.66-.18-3.37-.18-5.27Z"/>
</svg>
