<?xml version="1.0" encoding="UTF-8"?>
<svg version="1.1" width="150" height="150" viewBox="0 0 115 115" xmlns="http://www.w3.org/2000/svg"><defs><style>.cls-5{fill:#0050aa}.cls-3{fill:#fff000}.cls-3,.cls-4,.cls-5{fill-rule:evenodd}.cls-4{fill:#e60a14}</style></defs><path d="m0 0v115h115v-115h-115z" fill="#fff"/><path d="M1 1h113v113H1z" fill="#0050aa"/><path d="m57.5 4a53.51 53.51 0 1 0 53.5 53.5195 53.53 53.53 0 0 0-53.5-53.5195z" fill="#e60a14"/><path class="cls-3" d="M57.5 7.38a50.12 50.12 0 1 0 50.12 50.14A50.14 50.14 0 0 0 57.5 7.38z"/><path class="cls-4" d="m54.39 58.91-8.85-8.85-10.2 10.22v3.43l2.57-2.58 7.12 7.14-2.63 2.62 1.71 1.72 14.24-14.26v-3.42l-3.96 3.98z"/><path class="cls-5" d="M13.08 48.2h15.76v3.4h-2.63v11l9.13-5.08v9.31H13.08v-3.42h2.64V51.6h-2.64v-3.4zM79.53 48.2v3.4h2.64v11.81h-2.64v3.42h22.28v-9.31l-9.14 5.08v-11h2.64v-3.4H79.53z"/><path class="cls-4" d="m44.24 37.61a5.61 5.61 0 1 1-5.61 5.59 5.59 5.59 0 0 1 5.61-5.59z"/><path d="m55.75 48.1992v3.40039h2.63086v11.8105h-2.66016v3.41992h15c11.14 0 11.2793-18.6309 0.029297-18.6309h-15zm12.1406 5.80078h0.628906c3.29 0 3.29109 7 0.121094 7h-0.75v-7z" fill="#0050aa"/></svg>
