<?xml version="1.0" encoding="UTF-8" standalone="no"?><!DOCTYPE svg PUBLIC "-//W3C//DTD SVG 1.1//EN" "http://www.w3.org/Graphics/SVG/1.1/DTD/svg11.dtd"><svg width="100%" height="100%" viewBox="0 0 519 83" version="1.1" xmlns="http://www.w3.org/2000/svg" xmlns:xlink="http://www.w3.org/1999/xlink" xml:space="preserve" xmlns:serif="http://www.serif.com/" style="fill-rule:evenodd;clip-rule:evenodd;stroke-linejoin:round;stroke-miterlimit:2;"><g><path d="M59.032,80.48l-21.208,-0l-3.566,-5.021l-12.515,-22.963l-0.173,0l-0,27.984l-17.037,-0l-3.245,-5.021l3.245,-67.738l25.468,0c12.951,0 22.773,6.852 22.773,22.388c0,10.035 -5.041,18.72 -14.342,20.553l20.6,29.818Zm-37.462,-40.143l1.651,0c5.563,0 11.821,-1.158 11.821,-9.071c-0,-7.912 -6.258,-9.07 -11.821,-9.07l-1.651,0l-0,18.141Z" style="fill:#d8d9da;fill-rule:nonzero;"/><path d="M82.04,80.601l-17.036,-0l-3.484,-5.142l3.484,-51.598l-14.081,-0l-0,-16.018l45.198,-0l0,16.018l-14.081,-0l-0,56.74Z" style="fill:#d8d9da;fill-rule:nonzero;"/><path d="M125.181,52.038l15.906,-44.195l15.09,-4.967l3.424,4.967l-27.988,72.758l-13.212,-0l-3.898,-5.142l-23.656,-67.616l15.074,-4.967l3.44,4.967l15.82,44.195Z" style="fill:#d8d9da;fill-rule:nonzero;"/><path d="M55.488,75.459l-21.208,-0l-16.081,-27.984l-0.174,0l0,27.984l-17.036,-0l-0,-72.758l25.468,-0c12.951,-0 22.773,6.851 22.773,22.387c0,10.035 -5.041,18.72 -14.342,20.553l20.6,29.818Zm-37.463,-40.143l1.652,-0c5.563,-0 11.821,-1.158 11.821,-9.07c0,-7.913 -6.258,-9.071 -11.821,-9.071l-1.652,-0l0,18.141Z" style="fill:#ed1c24;fill-rule:nonzero;"/><path d="M78.496,75.581l-17.036,-0l-0,-56.741l-14.081,-0l-0,-16.018l45.198,-0l-0,16.018l-14.081,-0l0,56.741Z" style="fill:#ed1c24;fill-rule:nonzero;"/><path d="M121.636,47.018l15.907,-44.196l18.514,-0l-27.989,72.759l-13.212,-0l-27.553,-72.759l18.514,-0l15.819,44.196Z" style="fill:#ed1c24;fill-rule:nonzero;"/><path d="M361.479,67.868l-4.518,12.636l-18.071,-0l-3.364,-5.045l28.559,-67.681l15.004,-4.902l3.589,4.902l24.674,72.726l-18.158,-0l-3.29,-4.35l-0.967,-8.286l-23.458,-0Zm11.903,-45.67l-7.211,31.202l14.161,-0l-6.95,-31.202Z" style="fill:#d8d9da;fill-rule:nonzero;"/><path d="M464.266,39.897c-0.173,10.61 -0.868,19.676 -6.69,28.743c-6.429,9.934 -16.072,14.275 -27.02,14.275c-20.59,-0 -34.926,-15.529 -34.926,-38.388c0,-23.631 14.423,-39.16 35.535,-39.16c13.466,0 23.892,6.752 29.539,20.351l-16.16,7.524c0,0 -2.52,-3.256 -3.421,-4.667c1.042,-2.43 -5.592,-6.908 -10.74,-6.908c-11.208,-0 -17.029,11.864 -17.029,22.956c0,11.285 6.843,23.524 18.051,23.524c7.385,0 12.271,-5.005 12.966,-13.396l-13.901,0l-3.586,-5.165l3.586,-9.689l33.796,0Z" style="fill:#d8d9da;fill-rule:nonzero;"/><path d="M457.228,75.459l3.419,-67.681l24.153,0c18.245,0 33.275,15.915 33.275,36.363c0,20.448 -15.117,36.363 -33.275,36.363l-24.153,-0l-3.419,-5.045Zm20.447,-9.029l3.823,-0c10.165,-0 18.853,-8.111 18.853,-22.289c0,-13.021 -7.732,-21.943 -18.679,-21.943l-3.997,-0l-0,44.232Z" style="fill:#d8d9da;fill-rule:nonzero;"/><path d="M357.935,62.847l-4.518,12.636l-18.071,0l25.195,-72.725l18.593,-0l24.674,72.725l-18.158,0l-4.257,-12.636l-23.458,0Zm11.903,-45.67l-7.212,31.203l14.162,0l-6.95,-31.203Z" style="fill:#074ea2;fill-rule:nonzero;"/><path d="M460.722,34.876c-0.173,10.61 -0.868,19.677 -6.69,28.743c-6.429,9.935 -16.072,14.275 -27.019,14.275c-20.591,-0 -34.927,-15.529 -34.927,-38.388c-0,-23.631 14.423,-39.16 35.535,-39.16c13.466,0 23.892,6.752 29.539,20.351l-16.16,7.524c-2.346,-6.945 -7.298,-11.575 -14.161,-11.575c-11.208,-0 -17.029,11.864 -17.029,22.956c-0,11.285 6.843,23.525 18.051,23.525c7.385,-0 12.27,-5.006 12.966,-13.397l-13.901,-0l-0,-14.854l33.796,0Z" style="fill:#074ea2;fill-rule:nonzero;"/><path d="M457.103,2.758l24.153,-0c18.245,-0 33.275,15.914 33.275,36.362c0,20.448 -15.117,36.363 -33.275,36.363l-24.153,0l-0,-72.725Zm17.028,58.651l3.823,-0c10.165,-0 18.853,-8.111 18.853,-22.289c0,-13.021 -7.732,-21.943 -18.679,-21.943l-3.997,0l-0,44.232Z" style="fill:#074ea2;fill-rule:nonzero;"/><path d="M351.741,75.443l-212.572,-0.039l-0.038,-72.734l212.495,0l0.115,72.773Z" style="fill:#ed1c24;fill-rule:nonzero;"/><path d="M349.482,5.045l-208.053,-0.298l-0.115,68.321l208.244,0.077l-0.076,-68.1Z" style="fill:#fff200;fill-rule:nonzero;"/><path d="M187.99,27.4l-25.164,-0l-0.115,7.316l23.9,0.038l-0,6.282l-23.9,0.114l0.039,9.346l26.313,-0.115l0,5.937l-36.77,-0l-0,-36.003l35.697,0l0,7.085Z" style="fill:#ed1c24;fill-rule:nonzero;"/><path d="M208.673,20.315l-10.112,0l0,27.73c0.23,3.83 5.86,9.077 11.184,9.537c6.001,0.656 13.035,1.096 18.525,-0.527c4.177,-1.235 8.982,-5.655 9.244,-9.24l-0.038,-27.5l-10.189,0l-0.076,26.658l-1.226,1.991c-3.064,2.758 -7.966,2.911 -11.95,1.992c-1.992,-0.92 -4.749,-1.685 -5.362,-4.137l0,-26.504Z" style="fill:#ed1c24;fill-rule:nonzero;"/><path d="M340.429,31.805c2.298,5.669 1.533,13.023 -2.144,17.619c-8.12,8.579 -21.143,10.571 -32.173,6.894c-6.129,-1.992 -12.41,-7.814 -12.87,-14.708c-1.072,-7.507 2.605,-13.788 8.733,-17.925c8.58,-4.749 21.908,-4.596 30.488,-0c2.911,1.992 6.741,4.596 7.966,8.12Zm-18.078,-4.443c-5.668,-1.226 -11.796,-0.153 -15.933,3.677c-3.218,3.83 -3.218,9.805 -1.226,14.095c1.992,3.37 5.363,5.209 9.039,5.516c5.975,0.612 12.41,-0.154 15.78,-5.822c1.839,-3.371 1.686,-7.967 -0,-11.338c-1.685,-3.064 -4.443,-5.209 -7.66,-6.128Z" style="fill:#ed1c24;fill-rule:nonzero;"/><path d="M285.582,43.602c-0.306,-2.605 -3.83,-3.83 -4.903,-4.903c2.758,-0.459 5.363,-2.451 6.435,-5.209c0.613,-2.298 1.072,-5.668 -0.613,-7.813c-1.532,-3.064 -4.749,-4.29 -7.813,-5.056l-32.058,-0.115l0.038,35.812l11.414,-0l0.076,-13.635c-0,-0 10.112,-0.46 14.708,0.459c5.362,2.298 0.766,9.499 3.83,13.176l11.644,-0l-0,-0.919c-4.29,-2.145 -1.073,-8.12 -2.758,-11.797Zm-8.963,-9.728c-3.408,2.796 -11.873,1.915 -18.767,1.915c-0,0 0.498,-8.427 0.306,-8.427c4.979,-0 12.218,-0.842 18.385,1.532c0.613,1.226 1.149,3.907 0.076,4.98Z" style="fill:#ed1c24;fill-rule:nonzero;"/><path d="M341.486,15.054c-0,0.736 -0.122,1.41 -0.392,2.022c-0.257,0.601 -0.613,1.104 -1.066,1.532c-0.441,0.405 -0.956,0.723 -1.544,0.944c-0.588,0.221 -1.201,0.319 -1.826,0.331c-0.638,-0 -1.25,-0.11 -1.851,-0.331c-0.576,-0.208 -1.103,-0.527 -1.556,-0.956c-0.441,-0.416 -0.797,-0.931 -1.066,-1.532c-0.258,-0.6 -0.38,-1.262 -0.393,-2.01c-0,-0.735 0.123,-1.397 0.393,-2.01c0.257,-0.588 0.612,-1.103 1.066,-1.532c0.453,-0.416 0.968,-0.735 1.556,-0.955c0.588,-0.209 1.201,-0.319 1.851,-0.331c0.625,0 1.238,0.11 1.826,0.331c0.576,0.208 1.103,0.526 1.544,0.943c0.453,0.417 0.809,0.92 1.066,1.532c0.27,0.613 0.392,1.287 0.392,2.022Zm-1.384,-0c-0,-0.711 -0.16,-1.36 -0.466,-1.924c-0.319,-0.564 -0.735,-0.992 -1.262,-1.311c-0.527,-0.307 -1.104,-0.466 -1.716,-0.466c-0.478,-0 -0.919,0.086 -1.336,0.258c-0.417,0.183 -0.784,0.429 -1.115,0.759c-0.319,0.319 -0.564,0.711 -0.748,1.189c-0.172,0.466 -0.257,0.956 -0.27,1.495c-0,0.723 0.147,1.373 0.454,1.937c0.306,0.564 0.723,0.992 1.262,1.311c0.527,0.306 1.115,0.453 1.753,0.453l-0,0.013c0.612,0 1.189,-0.148 1.716,-0.466c0.527,-0.306 0.943,-0.747 1.262,-1.311c0.306,-0.564 0.466,-1.214 0.466,-1.937Zm-4.253,0.405l-0,2.193l-1.115,0l0,-5.196l1.948,-0c0.699,-0 1.226,0.11 1.594,0.355c0.355,0.233 0.526,0.638 0.539,1.214c0,0.441 -0.123,0.772 -0.343,0.992c-0.233,0.209 -0.528,0.331 -0.92,0.356l1.336,2.279l-1.323,0l-1.189,-2.193l-0.527,0Zm-0,-0.883l0.98,-0c0.27,-0 0.466,-0.037 0.601,-0.122c0.122,-0.086 0.184,-0.27 0.184,-0.552c0,-0.232 -0.086,-0.38 -0.27,-0.465c-0.184,-0.074 -0.417,-0.111 -0.711,-0.111l-0.784,-0l-0,1.25Z" style="fill:#ed1c24;fill-rule:nonzero;"/></g></svg>