<?xml version="1.0" encoding="UTF-8" standalone="no"?><!DOCTYPE svg PUBLIC "-//W3C//DTD SVG 1.1//EN" "http://www.w3.org/Graphics/SVG/1.1/DTD/svg11.dtd"><svg width="100%" height="100%" viewBox="0 0 486 162" version="1.1" xmlns="http://www.w3.org/2000/svg" xmlns:xlink="http://www.w3.org/1999/xlink" xml:space="preserve" xmlns:serif="http://www.serif.com/" style="fill-rule:evenodd;clip-rule:evenodd;stroke-linejoin:round;stroke-miterlimit:2;"><g id="surface1"><rect x="0" y="0" width="486" height="162" style="fill:#b11a1d;"/><path d="M443.9,73.459l0,-37.662l4.358,-0c0.895,-0 2.122,0.086 3.689,0.248c1.564,0.168 2.904,0.85 4.026,2.049c1.003,1.092 1.585,2.377 1.754,3.848c0.169,1.47 0.255,2.81 0.255,4.012l-0,15.714c-0,3.059 -0.197,5.191 -0.589,6.39c-0.39,1.202 -0.755,2.018 -1.089,2.456c-1.006,1.419 -2.263,2.266 -3.768,2.535c-1.512,0.279 -2.714,0.41 -3.607,0.41l-5.029,-0Zm-344.564,50.886l-28.634,-21.549l-28.617,21.549l10.561,-34.463l-27.729,-19.337l33.671,0.01l12.083,-34.762l12.156,34.762l33.676,-0.01l-27.731,19.337l10.564,34.463Zm-85.729,13.953l114.677,0l-0,-114.616l-114.677,0l-0,114.616Zm253.511,-65.366l-19.778,-0l-0,12.118l7.002,-0l0.004,30.704c-0,2.318 -0.138,4.058 -0.417,5.218c-0.276,1.154 -0.634,2.05 -1.078,2.684c-0.658,0.95 -1.457,1.605 -2.398,1.977c-0.892,0.348 -1.811,0.53 -2.759,0.551c-0.943,-0.021 -1.863,-0.203 -2.755,-0.551c-0.944,-0.372 -1.743,-1.027 -2.401,-1.977c-0.441,-0.634 -0.803,-1.53 -1.078,-2.684c-0.276,-1.16 -0.417,-2.9 -0.417,-5.215l0.004,-68.263c-0,-1.894 0.055,-3.658 0.165,-5.291c0.11,-1.632 0.606,-3.031 1.495,-4.188c0.771,-0.947 1.622,-1.554 2.566,-1.819c0.94,-0.262 1.846,-0.393 2.728,-0.393c0.885,-0.006 1.795,0.128 2.735,0.379c0.94,0.259 1.795,0.848 2.57,1.767c0.881,1.127 1.377,2.456 1.488,3.993c0.113,1.536 0.168,3.172 0.168,4.911l0,11.199l11.953,-0l-0,-14.929c-0,-2.198 -0.383,-4.65 -1.144,-7.364c-0.768,-2.721 -2.077,-5.019 -3.933,-6.9c-1.743,-1.777 -3.875,-3.086 -6.387,-3.923c-2.507,-0.83 -5.132,-1.25 -7.856,-1.25c-2.728,-0.004 -5.35,0.503 -7.861,1.512c-2.511,1.009 -4.584,2.363 -6.221,4.061c-2.4,2.439 -3.875,5.091 -4.419,7.96c-0.551,2.863 -0.823,5.622 -0.823,8.274l-0,69.565c-0,2.973 0.22,5.942 0.661,8.915c0.438,2.976 1.695,5.731 3.775,8.28c1.533,1.802 3.503,3.259 5.915,4.375c2.404,1.116 5.194,1.67 8.373,1.67c0.241,0 0.472,0 0.699,-0.003c0.228,0.003 0.465,0.003 0.703,0.003c3.173,0 5.966,-0.554 8.374,-1.67c2.407,-1.116 4.381,-2.573 5.911,-4.375c2.08,-2.549 3.337,-5.304 3.775,-8.28c0.444,-2.973 0.661,-5.942 0.661,-8.911l0,-42.13Zm128.48,32.13l5.894,-56.817l0.33,0.162l5.89,56.655l-12.114,0Zm28.655,33.236l-14.408,-114.616l-16.372,0l-14.412,114.616l13.096,0l2.298,-21.121l14.411,-0l2.288,21.121l13.099,0Zm-58.126,0l-0,-102.501l15.063,-0l-0,-12.115l-42.898,0l-0,12.115l15.066,-0l0,102.501l12.769,0Zm-71.06,-38.148l-0,13.658c-0,1.57 0.027,3.245 0.082,5.025c0.056,1.781 0.269,3.534 0.655,5.26c0.379,1.729 0.954,3.431 1.719,5.101c0.761,1.678 1.856,3.142 3.275,4.399c2.071,1.884 4.365,3.138 6.876,3.765c2.511,0.627 4.86,0.94 7.04,0.94c2.622,0 5.16,-0.313 7.613,-0.95c2.459,-0.634 4.722,-2.325 6.796,-5.078c2.187,-2.855 3.437,-5.897 3.768,-9.121c0.327,-3.227 0.489,-6.324 0.489,-9.286l0,-1.905c0,-3.81 -0.272,-7.22 -0.82,-10.23c-0.547,-3.017 -1.25,-5.715 -2.125,-8.091c-0.882,-2.384 -1.86,-4.526 -2.949,-6.428c-1.091,-1.905 -2.183,-3.706 -3.272,-5.397l-10.647,-16.537c-2.511,-3.638 -4.092,-7.041 -4.746,-10.213c-0.655,-3.173 -0.985,-6.314 -0.985,-9.435l0.003,-1.56c-0,-2.394 0.548,-4.313 1.636,-5.77c1.092,-1.663 2.673,-2.494 4.747,-2.494c5.783,-0.01 7.033,5.122 7.04,10.072l0,12.194l11.467,-0l0,-11.095c0,-2.397 -0.138,-5.081 -0.413,-8.05c-0.269,-2.969 -1.337,-5.807 -3.193,-8.522c-1.96,-2.703 -4.258,-4.501 -6.876,-5.387c-2.617,-0.888 -5.349,-1.329 -8.187,-1.329c-2.838,-0.004 -5.46,0.475 -7.857,1.429c-2.401,0.951 -4.585,2.646 -6.548,5.081c-1.857,2.435 -3.086,4.953 -3.689,7.547c-0.6,2.59 -0.899,5.001 -0.899,7.226l-0,2.856c-0,3.072 0.327,6.035 0.981,8.897c0.655,2.859 1.42,5.501 2.291,7.94c0.768,1.908 1.695,3.916 2.783,6.038c1.096,2.118 2.239,4.071 3.441,5.873l10.809,17.188c1.743,2.69 3.052,5.384 3.93,8.07c0.872,2.687 1.302,5.691 1.302,8.994l0,5.742c0,0.83 -0.072,2.094 -0.244,3.803c-0.159,1.705 -0.624,3.076 -1.388,4.105c-0.655,0.827 -1.392,1.323 -2.212,1.475c-0.82,0.158 -1.663,0.234 -2.538,0.234c-1.202,-0 -2.511,-0.179 -3.927,-0.534c-1.423,-0.362 -2.459,-1.571 -3.11,-3.627c-0.221,-0.613 -0.386,-1.564 -0.493,-2.845c-0.11,-1.288 -0.162,-2.287 -0.162,-3.007l0,-16.021l-11.463,0Zm-126.066,-28.327l0,-36.026l3.769,-0c1.742,-0 3.244,0.248 4.501,0.74c1.254,0.493 2.264,1.123 3.028,1.884c1.092,1.202 1.719,2.594 1.884,4.175c0.162,1.585 0.245,2.976 0.245,4.175l-0,13.754c-0,1.856 -0.11,3.579 -0.327,5.156c-0.221,1.585 -0.765,2.869 -1.64,3.851c-0.982,1.092 -2.073,1.75 -3.272,1.963c-1.202,0.221 -2.239,0.328 -3.111,0.328l-5.077,-0Zm0,54.361l0,-42.574l3.769,-0c1.088,-0 2.452,0.193 4.092,0.575c1.636,0.382 3.055,1.505 4.257,3.358c0.871,1.416 1.364,3.056 1.471,4.909c0.11,1.86 0.169,3.878 0.169,6.059l-0,17.029c-0,3.82 -0.493,6.442 -1.475,7.857c-0.875,1.313 -2.022,2.108 -3.441,2.374c-1.419,0.279 -2.566,0.413 -3.437,0.413l-5.405,-0Zm-12.769,12.114l22.758,0c3.71,0 6.631,-0.761 8.76,-2.287c2.128,-1.533 3.792,-3.221 4.994,-5.077c1.416,-2.294 2.236,-4.723 2.453,-7.289c0.22,-2.559 0.33,-5.101 0.33,-7.612l0,-16.375c0,-2.291 -0.055,-4.475 -0.165,-6.548c-0.107,-2.074 -0.544,-4.037 -1.305,-5.897c-0.658,-1.636 -1.723,-3.248 -3.197,-4.829c-1.471,-1.581 -3.63,-2.804 -6.465,-3.683l0.162,-0.492c1.636,-0.327 3.169,-0.927 4.584,-1.802c1.419,-0.871 2.622,-2.235 3.603,-4.092c1.089,-1.856 1.747,-3.875 1.967,-6.059c0.214,-2.18 0.327,-4.309 0.327,-6.386l0,-11.463c0,-3.166 -0.22,-6.41 -0.658,-9.741c-0.437,-3.328 -1.691,-6.248 -3.768,-8.76c-1.195,-1.419 -2.973,-2.807 -5.318,-4.174c-2.349,-1.364 -5.484,-2.046 -9.414,-2.046l-19.648,-0.004l0,114.616Zm48.299,0l12.773,0l-0,-114.616l-12.773,0l0,114.616Zm267.862,0l0,-0.816c-1.86,-2.074 -2.924,-4.233 -3.196,-6.469c-0.269,-2.239 -0.41,-5.208 -0.41,-8.925l0,-24.559c0,-1.857 -0.165,-4.147 -0.489,-6.875c-0.327,-2.728 -1.585,-5.294 -3.768,-7.695c-0.438,-0.544 -1.092,-1.147 -1.964,-1.805c-0.875,-0.655 -2.073,-1.251 -3.603,-1.798l0.004,-0.493c3.382,-0.654 5.945,-2.128 7.691,-4.416c1.533,-1.86 2.456,-4.123 2.784,-6.799c0.33,-2.673 0.492,-5.156 0.492,-7.451l0,-13.753c0,-0.762 -0.027,-1.771 -0.083,-3.032c-0.051,-1.25 -0.186,-2.559 -0.409,-3.926c-0.217,-1.368 -0.576,-2.756 -1.065,-4.179c-0.492,-1.415 -1.174,-2.779 -2.046,-4.088c-1.199,-1.64 -2.483,-2.973 -3.847,-4.016c-1.364,-1.034 -2.784,-1.799 -4.258,-2.288c-1.471,-0.492 -2.89,-0.819 -4.25,-0.985c-1.375,-0.165 -2.542,-0.244 -3.528,-0.244l-19.316,-0.004l-0,114.616l12.772,0l-0,-52.721l3.599,-0c1.53,-0 2.89,0.327 4.096,0.981c1.199,0.655 2.125,1.419 2.78,2.294c0.764,1.092 1.229,2.374 1.391,3.848c0.166,1.474 0.245,2.972 0.245,4.502l-0,27.508c-0,3.496 0.165,6.224 0.492,8.184c0.331,1.967 0.93,3.768 1.798,5.404l14.088,0Z" style="fill:#fefefe;"/></g></svg>