<?xml version='1.0' encoding='iso-8859-1'?>
<svg version="1.1" xmlns="http://www.w3.org/2000/svg" viewBox="0 0 387.001 387.001" xmlns:xlink="http://www.w3.org/1999/xlink" enable-background="new 0 0 387.001 387.001">
  <g>
    <g fill="#020202">
      <circle cx="82.93" cy="88.457" r="44.229"/>
      <path d="m196.266,229.997h-89.019v-69.668c0-9.16-10.394-16.586-23.216-16.586s-23.216,7.426-23.216,16.586v99.514c0,5.546 3.822,10.44 9.671,13.452 2.849,1.98 6.148,3.134 9.679,3.134h100.075v91.222c0,10.688 7.918,19.35 17.687,19.35 9.769,0 17.688-8.662 17.688-19.35v-116.101c0.001-4.086-1.164-7.87-3.14-10.995-3.453-6.352-9.416-10.558-16.209-10.558z"/>
      <polygon points="274.076,187.971 298.869,179.707 266.063,92.225 266.063,0 248.787,0 248.787,154.8     266.063,154.8 266.063,117.858 287.162,174.122 245.614,187.971 160.33,187.971 160.33,210.086 248.787,210.086 248.787,387     270.901,387 270.901,210.086 359.357,210.086 359.357,187.971   "/>
      <polygon points="49.758,287.485 49.758,143.743 27.644,143.743 27.644,287.485 27.644,309.6 27.644,387     49.758,387 49.758,309.6 149.272,309.6 149.272,387 171.387,387 171.387,309.6 171.387,287.485 149.272,287.485   "/>
    </g>
  </g>
</svg>
