<?xml version="1.0" encoding="UTF-8" standalone="no"?><!DOCTYPE svg PUBLIC "-//W3C//DTD SVG 1.1//EN" "http://www.w3.org/Graphics/SVG/1.1/DTD/svg11.dtd"><svg width="100%" height="100%" viewBox="0 0 82 18" version="1.1" xmlns="http://www.w3.org/2000/svg" xmlns:xlink="http://www.w3.org/1999/xlink" xml:space="preserve" xmlns:serif="http://www.serif.com/" style="fill-rule:evenodd;clip-rule:evenodd;stroke-linejoin:round;stroke-miterlimit:2;"><path d="M25.378,15.354l-2.642,-2.643l-2.12,0l0,4.136l-3.753,0l0,-16.774l9.983,-0l3.115,3.115l0,6.434l-2.604,2.604l3.217,3.217l-2.579,2.553l-2.642,-2.642l0.025,-0Zm-0.127,-6.166l0.893,-0.868l0,-3.754l-0.945,-0.97l-4.57,0l0,5.592l4.622,-0Zm-23.681,6.115l-1.545,-1.558l-0,-10.57l3.115,-3.115l6.945,0l3.038,3.013l-0,3.804l-3.753,0l-0,-2.349l-0.971,-0.945l-3.676,0l-0.868,0.894l-0,7.966l0.893,0.868l3.754,0l0.893,-0.868l0,-2.119l3.753,-0l0,3.498l-3.038,3.012l-6.97,0l-1.545,-1.557l-0.025,0.026Zm36.089,1.557l-4.851,-4.877l-0,-4.366l7.557,-7.531l4.213,-0l4.928,4.953l-0,4.366l-7.481,7.455l-4.366,-0Zm5.502,-6.421l2.732,-2.745l0,-1.302l-2.63,-2.655l-1.302,-0l-5.566,5.54l0,1.226l2.63,2.655l1.379,-0l2.732,-2.745l0.025,0.026Zm9.166,-1.966l0,-8.387l9.983,-0l3.038,3.012l0,6.971l-3.038,3.012l-6.23,0l0,3.753l-3.753,0l0,-8.387l0,0.026Zm8.375,1.11l0.893,-0.868l0,-4.136l-0.944,-0.97l-4.571,-0l0,5.974l4.622,0Zm8.183,-1.085l0.025,-8.361l9.958,-0.051l3.114,3.089l0,6.894l-3.038,3.012l-6.23,0l0,3.753l-3.829,0l0.025,-8.361l-0.025,0.025Zm8.438,1.085l0.893,-0.868l0,-4.136l-0.944,-0.97l-4.57,-0l-0,5.974l4.621,0Z" style="fill-rule:nonzero;"/></svg>