<svg xmlns="http://www.w3.org/2000/svg" width="680.307" height="126.352" viewBox="56.693 54.203 680.307 126.352"><path fill="#161615" d="M191.017 54.209a61.15 61.15 0 0 0-33.182 9.582A49.626 49.626 0 0 1 166 71.776a50.782 50.782 0 0 1 25.019-6.211c29.455 0 50.394 21.648 50.394 51.813 0 29.989-20.939 51.459-50.394 51.459-29.1 0-50.039-21.471-50.039-51.459a56.19 56.19 0 0 1 5.5-24.842 31.623 31.623 0 0 0-8.162-8.694 63.6 63.6 0 0 0-9.405 33.536c0 36.553 26.084 63.17 62.1 63.17 35.666 0 62.46-27.149 62.46-63.17s-26.79-63.169-62.456-63.169zm154.375 76.832a56.523 56.523 0 0 1-1.951 15.084c-4.259 14.55-16.325 22.713-32.473 22.713-15.97 0-28.036-8.163-32.294-22.713a56.524 56.524 0 0 1-1.952-15.084V56.693h-12.066v75.59a68.748 68.748 0 0 0 2.661 18.81c5.856 18.454 21.116 29.456 43.83 29.456 22.713 0 37.795-11.356 43.827-29.811 1.601-4.969 2.484-12.601 2.484-18.809V56.693h-12.066v74.348zm-210.269 30.875a46.373 46.373 0 0 1-10.292 3.194 93.836 93.836 0 0 1-19.341 1.601H68.759V67.873h36.731a93.766 93.766 0 0 1 19.341 1.6c23.245 4.968 36.021 21.825 36.021 47.909a59.042 59.042 0 0 1-4.969 24.842 39.926 39.926 0 0 0 7.985 9.228c5.856-9.582 9.05-21.293 9.05-34.069 0-31.584-16.68-52.523-45.071-58.733a94.29 94.29 0 0 0-20.583-1.952H56.693v121.368h50.571a94.594 94.594 0 0 0 20.583-1.775 59.866 59.866 0 0 0 15.26-5.5 38.159 38.159 0 0 1-7.984-8.875zm576.156-48.974l-12.776-6.21c-10.866-5.282-17.035-11.807-17.035-22 0-11.356 7.809-19.519 20.052-19.519 12.6 0 19.699 8.872 21.647 22.89h11.357c-2.13-23.422-15.793-33.891-33-33.891-18.986 0-32.117 13.663-32.117 31.052 0 15.878 9.607 25.992 24.665 33l12.947 6.036c9.228 4.258 17.567 11.178 17.567 23.6s-8.872 20.939-22 20.939c-14.195 0-24.487-8.163-26.616-27.5H663.9c1.95 26.794 17.211 39.215 38.5 39.215 20.76 0 34.6-13.841 34.6-33.182s-12.591-28.042-25.721-34.43zM605.7 56.693l-47.022 121.371h13.486l14.373-38.5h50.038l14.551 38.5h13.84l-47.2-121.371H605.7zm26.617 71.508h-41.522l14.018-37.264c2.484-6.565 4.614-13.13 6.743-19.7a434.804 434.804 0 0 0 6.92 19.7l13.841 37.264zM513.253 56.693h-12.065v121.371h48.618l4.791-11.357h-41.344V56.693zm-94.4 65.655v11.354h57.314c-4.436 21.115-22 35.133-45.248 35.133-29.455 0-49.861-21.545-49.861-51.635 0-29.988 20.762-51.636 49.861-51.636 19.52 0 35.489 10.114 42.587 27.5h12.953c-7.453-23.955-29.278-38.86-55.54-38.86-35.488 0-61.927 27.148-61.927 62.992 0 37.013 25.552 63.347 61.927 63.347 34.424 0 59.089-24.842 58.734-58.199l-70.8.004z"/></svg>